<?xml version="1.0" encoding="UTF-8"?>
<svg xmlns="http://www.w3.org/2000/svg" style="display: none;">
	<symbol viewBox="0 0 24 24" id="star" fill="currentColor"
		xmlns="http://www.w3.org/2000/svg">
		<g id="SVGRepo_bgCarrier" stroke-width="0"></g>
		<g id="SVGRepo_tracerCarrier" stroke-linecap="round" stroke-linejoin="round"></g>
		<g id="SVGRepo_iconCarrier">
			<path d="M9.15316 5.40838C10.4198 3.13613 11.0531 2 12 2C12.9469 2 13.5802 3.13612 14.8468 5.40837L15.1745 5.99623C15.5345 6.64193 15.7144 6.96479 15.9951 7.17781C16.2757 7.39083 16.6251 7.4699 17.3241 7.62805L17.9605 7.77203C20.4201 8.32856 21.65 8.60682 21.9426 9.54773C22.2352 10.4886 21.3968 11.4691 19.7199 13.4299L19.2861 13.9372C18.8096 14.4944 18.5713 14.773 18.4641 15.1177C18.357 15.4624 18.393 15.8341 18.465 16.5776L18.5306 17.2544C18.7841 19.8706 18.9109 21.1787 18.1449 21.7602C17.3788 22.3417 16.2273 21.8115 13.9243 20.7512L13.3285 20.4768C12.6741 20.1755 12.3469 20.0248 12 20.0248C11.6531 20.0248 11.3259 20.1755 10.6715 20.4768L10.0757 20.7512C7.77268 21.8115 6.62118 22.3417 5.85515 21.7602C5.08912 21.1787 5.21588 19.8706 5.4694 17.2544L5.53498 16.5776C5.60703 15.8341 5.64305 15.4624 5.53586 15.1177C5.42868 14.773 5.19043 14.4944 4.71392 13.9372L4.2801 13.4299C2.60325 11.4691 1.76482 10.4886 2.05742 9.54773C2.35002 8.60682 3.57986 8.32856 6.03954 7.77203L6.67589 7.62805C7.37485 7.4699 7.72433 7.39083 8.00494 7.17781C8.28555 6.96479 8.46553 6.64194 8.82547 5.99623L9.15316 5.40838Z" fill="currentColor"></path>
		</g>
	</symbol>
	<symbol fill="currentColor" id="wolf" viewBox="0 0 32 32" version="1.1"
		xmlns="http://www.w3.org/2000/svg">
		<g id="SVGRepo_bgCarrier" stroke-width="0"></g>
		<g id="SVGRepo_tracerCarrier" stroke-linecap="round" stroke-linejoin="round"></g>
		<g id="SVGRepo_iconCarrier">
			<title>wolf-head</title>
			<path d="M21.343 9.142c-2.299-1.288-5.253-1.641-7.601-1.156l-2.551-5.558c-0.556 0.877-0.976 1.797-1.242 2.772l-0.014-1.878c-0.785 1.988-1.218 4.414-0.68 6.653-2.355-0.498-4.745-0.627-7.181-0.258 2.126 0.635 3.292 1.485 4.785 2.916-1.674 0.609-3.761 1.888-5.8 4.382 2.213-0.552 4.047-0.716 5.582-0.394-2.305 1.402-3.999 3.504-5.514 7.122 2.24-1.076 4.050-1.175 6.424-1.178-1.439 2.043-2.201 4.823-2.266 7.041 1.531-1.623 3.595-3.753 5.44-4.926 0.187 1.866 0.938 3.638 2.243 5.317-0.015-2.987 0.769-6.020 2.359-9.101l0.143-0.071 0.048-0.042c1.866-0.77 3.789-1.19 5.711-1.3l-0.909-0.645c2.143-0.443 4.504-0.763 7.386-0.887 0.476-0.803 0.86-1.513 1.176-2.17l-0.393-1.523-1.524 1.922-0.492-1.714-1.402 1.821-0.47-1.628-1.489 1.963-0.479-1.76-1.489 1.963 0.076-2.567 1.407-2.66 0.479 1.76 1.489-1.962 0.479 1.76 1.463-1.872 0.409 1.679 1.524-1.922 0.492 1.714 1.536-1.996c0.142-0.672 0.287-1.402 0.46-2.23-3.464-0.23-6.635 0.3-9.614 0.615z"></path>
		</g>
	</symbol>
	<symbol viewBox="0 0 64 64"
		xmlns="http://www.w3.org/2000/svg" id="mic-on" stroke-width="3" stroke="#000000" fill="currentColor">
		<g id="SVGRepo_bgCarrier" stroke-width="0"></g>
		<g id="SVGRepo_tracerCarrier" stroke-linecap="round" stroke-linejoin="round"></g>
		<g id="SVGRepo_iconCarrier">
			<path d="M47.67,28.43v3.38a15.67,15.67,0,0,1-31.34,0V28.43" stroke-linecap="round"></path>
			<rect x="22.51" y="6.45" width="18.44" height="34.22" rx="8.89" stroke-linecap="round"></rect>
			<line x1="31.73" y1="57.34" x2="31.73" y2="47.71" stroke-linecap="round"></line>
			<line x1="37.14" y1="57.55" x2="26.43" y2="57.55" stroke-linecap="round"></line>
		</g>
	</symbol>
	<symbol viewBox="0 0 64 64"
		xmlns="http://www.w3.org/2000/svg" id="mic-off" stroke-width="3" stroke="#000000" fill="currentColor">
		<g id="SVGRepo_bgCarrier" stroke-width="0"></g>
		<g id="SVGRepo_tracerCarrier" stroke-linecap="round" stroke-linejoin="round"></g>
		<g id="SVGRepo_iconCarrier">
			<path d="M47.67,28.43v3.38a15.67,15.67,0,0,1-31.34,0V28.43" stroke-linecap="round"></path>
			<path d="M41.07,24.44v7.34a8.89,8.89,0,0,1-8.89,8.89h-.65a5.66,5.66,0,0,1-1.31-.09" stroke-linecap="round"></path>
			<path d="M23.56,35.73a9,9,0,0,1-.92-3.95V15.34a8.89,8.89,0,0,1,8.89-8.89h.65a8.9,8.9,0,0,1,8,5" stroke-linecap="round"></path>
			<line x1="31.73" y1="57.34" x2="31.73" y2="47.71" stroke-linecap="round"></line>
			<line x1="37.14" y1="57.55" x2="26.43" y2="57.55" stroke-linecap="round"></line>
			<line x1="49" y1="6.99" x2="16.33" y2="52.53" stroke-linecap="round"></line>
		</g>
	</symbol>
	<symbol viewBox="-3.89 0 49.099 49.099" id="request-money"
		xmlns="http://www.w3.org/2000/svg" fill="#000000">
		<g id="SVGRepo_bgCarrier" stroke-width="0"></g>
		<g id="SVGRepo_tracerCarrier" stroke-linecap="round" stroke-linejoin="round"></g>
		<g id="SVGRepo_iconCarrier">
			<g id="money_mail" data-name="money mail" transform="translate(-325.621 -226.054)">
				<path id="Path_101" data-name="Path 101" d="M326.328,250.5v23.946h39.909V250.5l-19.955-15.964L326.328,250.5Z" fill="#ffe959" fill-rule="evenodd"></path>
				<path id="Path_102" data-name="Path 102" d="M362.246,226.554H330.319v27.2l15.964,12.709,15.964-12.627V226.554Z" fill="#f2f7fd" fill-rule="evenodd"></path>
				<path id="Path_103" data-name="Path 103" d="M346.282,237.3a7.982,7.982,0,1,1-7.982,7.982,7.985,7.985,0,0,1,7.982-7.982Z" fill="#56ae89" fill-rule="evenodd"></path>
				<path id="Path_104" data-name="Path 104" d="M346.282,237.3a7.982,7.982,0,1,1-7.982,7.982,7.985,7.985,0,0,1,7.982-7.982Zm0,11.973v1m0-9.978v1m-2,5.986a2,2,0,1,0,2-2m2-2a2,2,0,1,0-2,2m15.964-18.73H330.319v27.2l15.963,12.709,15.964-12.628V226.554Zm-9.1,34.795,13.094,13.1m-26.813-13.1-13.1,13.1m35.918-27.139,3.991,3.193-19.955,15.964L326.328,250.5l3.991-3.193m19.954,27.139h15.964V250.5m-20.454,23.946h1M326.328,250.5v23.946h15.963" fill="none" stroke="#0f0e0b" stroke-linecap="round" stroke-linejoin="round" stroke-width="1"></path>
			</g>
		</g>
	</symbol>
	<symbol viewBox="0 0 1024 1024" id="stop" version="1.1"
		xmlns="http://www.w3.org/2000/svg" fill="#000000">
		<g id="SVGRepo_bgCarrier" stroke-width="0"></g>
		<g id="SVGRepo_tracerCarrier" stroke-linecap="round" stroke-linejoin="round"></g>
		<g id="SVGRepo_iconCarrier">
			<path d="M513.28 80.64c-226.56 0-409.6 183.04-409.6 409.6s183.04 409.6 409.6 409.6 409.6-183.04 409.6-409.6-184.32-409.6-409.6-409.6z m0 153.6c47.36 0 92.16 12.8 129.28 35.84L293.12 619.52c-23.04-38.4-35.84-81.92-35.84-129.28 0-140.8 113.92-256 256-256z m0 512c-47.36 0-92.16-12.8-129.28-35.84l350.72-350.72c23.04 38.4 35.84 81.92 35.84 129.28-1.28 142.08-116.48 257.28-257.28 257.28z" fill="#D82621"></path>
			<path d="M513.28 912.64c-232.96 0-422.4-189.44-422.4-422.4s189.44-422.4 422.4-422.4 422.4 189.44 422.4 422.4-189.44 422.4-422.4 422.4z m0-819.2c-218.88 0-396.8 177.92-396.8 396.8s177.92 396.8 396.8 396.8 396.8-177.92 396.8-396.8-177.92-396.8-396.8-396.8z m0 665.6c-47.36 0-94.72-12.8-136.96-37.12-3.84-2.56-5.12-5.12-6.4-8.96 0-3.84 1.28-7.68 3.84-10.24l350.72-350.72c2.56-2.56 6.4-3.84 10.24-3.84 3.84 0 7.68 2.56 8.96 6.4C768 395.52 780.8 442.88 780.8 491.52c1.28 147.2-120.32 267.52-267.52 267.52z m-108.8-51.2c33.28 16.64 71.68 25.6 108.8 25.6 134.4 0 243.2-108.8 243.2-243.2 0-37.12-8.96-75.52-25.6-108.8L404.48 707.84z m-111.36-75.52h-1.28c-3.84 0-7.68-2.56-8.96-6.4-24.32-40.96-37.12-88.32-37.12-136.96 0-148.48 120.32-268.8 268.8-268.8 47.36 0 94.72 12.8 136.96 37.12 3.84 2.56 5.12 5.12 6.4 8.96s-1.28 7.68-3.84 10.24L302.08 628.48c-2.56 2.56-6.4 3.84-8.96 3.84z m220.16-385.28c-134.4 0-243.2 108.8-243.2 243.2 0 37.12 8.96 75.52 25.6 108.8l326.4-326.4c-34.56-16.64-71.68-25.6-108.8-25.6z" fill="#231C1C"></path>
		</g>
	</symbol>
	<symbol viewBox="0 0 12 12" enable-background="new 0 0 12 12" id="card" version="1.1" xml:space="preserve"
		xmlns="http://www.w3.org/2000/svg"
		xmlns:xlink="http://www.w3.org/1999/xlink" fill="currentColor">
		<g id="SVGRepo_bgCarrier" stroke-width="0"></g>
		<g id="SVGRepo_tracerCarrier" stroke-linecap="round" stroke-linejoin="round"></g>
		<g id="SVGRepo_iconCarrier">
			<path d="M11,1.5H1c-0.5517578,0-1,0.4482422-1,1v7c0,0.5517578,0.4482422,1,1,1h10c0.5517578,0,1-0.4482422,1-1v-7 C12,1.9482422,11.5517578,1.5,11,1.5z M4,8.5H2v-1h2V8.5z M8,8.5H5v-1h3V8.5z" fill="currentColor"></path>
		</g>
	</symbol>
	<symbol fill="#fff" height="30px" width="30px" version="1.1" id="start"
		xmlns="http://www.w3.org/2000/svg"
		xmlns:xlink="http://www.w3.org/1999/xlink" viewBox="0 0 37.979 37.979" xml:space="preserve">
		<g id="SVGRepo_bgCarrier" stroke-width="0"></g>
		<g id="SVGRepo_tracerCarrier" stroke-linecap="round" stroke-linejoin="round"></g>
		<g id="SVGRepo_iconCarrier">
			<g>
				<path d="M21.553,2.322C15.45,3.435,9.956,6.693,2.608,3.406c0.096,0.333,0.189,0.667,0.283,1h-1.75L1,3.906H0l8.988,31.75h1 l-4.01-14.167h1.75c0.109,0.39,0.221,0.778,0.33,1.168C15.405,25.942,20.9,22.684,27,21.571 C25.186,15.155,23.369,8.738,21.553,2.322z M9.796,5.831c2.07-0.046,4.032-0.473,5.971-0.983c0.521,1.833,1.039,3.667,1.559,5.5 c-1.938,0.51-3.901,0.937-5.973,0.983C10.834,9.497,10.314,7.664,9.796,5.831z M5.766,20.739L1.354,5.156h1.75 c1.472,5.194,2.941,10.389,4.412,15.583H5.766z M7.173,15.991c-0.508-1.792-1.017-3.583-1.522-5.375 c2.046,0.751,3.951,1.005,5.773,0.964c0.507,1.792,1.015,3.583,1.521,5.375C11.125,16.996,9.219,16.742,7.173,15.991z M20.651,22.098c-1.938,0.511-3.9,0.937-5.972,0.982c-0.519-1.834-1.038-3.667-1.558-5.5c2.069-0.046,4.032-0.473,5.973-0.983 C19.613,18.432,20.133,20.264,20.651,22.098z M24.039,14.635c-1.729,0.375-3.414,0.889-5.121,1.337 c-0.508-1.792-1.016-3.583-1.521-5.375c1.706-0.449,3.395-0.962,5.12-1.337C23.023,11.052,23.531,12.843,24.039,14.635z M23.227,5.446c0.096,0.333,0.189,0.667,0.283,1c0.787-0.118,1.584-0.195,2.398-0.213c0.52,1.833,1.037,3.667,1.557,5.5 c-0.813,0.018-1.611,0.095-2.396,0.213c0.591,2.083,1.181,4.167,1.771,6.25c0.785-0.118,1.584-0.195,2.396-0.213 c0.521,1.833,1.039,3.667,1.56,5.5c-2.07,0.045-4.033,0.473-5.974,0.981c-0.121-0.432-0.243-0.86-0.364-1.291 c-2.018,0.529-4.008,1.15-6.068,1.525c0.217,0.766,0.434,1.529,0.649,2.293c6.101-1.113,11.597-4.371,18.94-1.086 c-1.814-6.416-3.633-12.833-5.449-19.25C29.11,5.128,26.094,5.015,23.227,5.446z M34.833,18.322 c-2.046-0.751-3.95-1.005-5.772-0.964c-0.508-1.792-1.016-3.583-1.521-5.375c1.82-0.041,3.727,0.213,5.771,0.964 C33.817,14.739,34.326,16.53,34.833,18.322z"></path>
			</g>
		</g>
	</symbol>
	<symbol fill="#fff" height="30px" width="30px" version="1.1" id="jail-visit"
		xmlns="http://www.w3.org/2000/svg"
		xmlns:xlink="http://www.w3.org/1999/xlink" viewBox="0 0 392.663 392.663" xml:space="preserve">
		<g id="SVGRepo_bgCarrier" stroke-width="0"></g>
		<g id="SVGRepo_tracerCarrier" stroke-linecap="round" stroke-linejoin="round"></g>
		<g id="SVGRepo_iconCarrier">
			<g>
				<g>
					<path d="M381.737,370.812h-10.925V21.85h10.925c6.012,0,10.925-4.848,10.925-10.925S387.814,0,381.737,0H10.925 C4.913,0,0,4.848,0,10.925S4.848,21.85,10.925,21.85h10.925v348.962H10.925C4.913,370.812,0,375.661,0,381.737 c0,6.012,4.848,10.925,10.925,10.925h370.747c6.012,0,10.925-4.848,10.925-10.925 C392.598,375.661,387.749,370.812,381.737,370.812z M261.754,21.85h32.711v51.976h-32.711V21.85z M207.192,21.85h32.711v51.976 h-32.711V21.85z M152.695,21.85h32.711v51.976h-32.711V21.85z M98.198,21.85h32.711c0,0,0,51.976,0,51.976H98.198V21.85z M98.198,95.677h196.267v86.238l-196.267-0.065V95.677z M76.347,370.812H43.636V21.85h32.711V370.812z M130.909,370.812H98.198 c0,0,0-167.047,0-167.047h32.711V370.812z M185.471,370.812H152.76V203.766h32.711V370.812z M239.968,370.812h-32.711V203.766 h32.711V370.812z M294.465,370.812h-32.711V203.766h32.711V370.812z M349.026,370.812h-32.711V21.85h32.711V370.812z"></path>
				</g>
			</g>
		</g>
	</symbol>
	<symbol fill="#fff" height="30px" width="30px" version="1.1" id="jail"
		xmlns="http://www.w3.org/2000/svg"
		xmlns:xlink="http://www.w3.org/1999/xlink" viewBox="0 0 512.019 512.019" xml:space="preserve">
		<g id="SVGRepo_bgCarrier" stroke-width="0"></g>
		<g id="SVGRepo_tracerCarrier" stroke-linecap="round" stroke-linejoin="round"></g>
		<g id="SVGRepo_iconCarrier">
			<g>
				<g>
					<path d="M503.765,235.17c-8.917-21.461-24.448-38.699-44.075-50.325l-25.003-60.117c-13.568-32.533-51.072-48.021-83.669-34.453 l-11.136,4.629l-45.077-64.469c-2.944-4.203-7.317-7.211-12.309-8.469L197.163,0.631c-9.6-2.389-19.776,2.24-24.256,11.157 l-41.131,82.24l-61.525,61.568c-5.717,5.696-7.723,14.165-5.163,21.824l12.245,36.715c-31.488,3.968-56,30.421-56,62.72v65.152 C8.107,359.756,0,381.538,0,405.346c0,58.795,47.851,106.667,106.667,106.667c58.795,0,106.667-47.872,106.667-106.667 c0-23.808-8.107-45.589-21.333-63.339v-65.152c0-35.008-28.715-63.509-64-63.509h-5.973l-12.288-36.907l54.677-54.677 c1.621-1.621,2.965-3.499,3.989-5.547l35.029-70.037l60.971,15.253l35.904,51.328c-24.661,16.704-35.072,49.045-23.168,77.589 l25.024,60.139c-5.376,21.483-4.48,44.715,4.672,66.667c10.944,26.304,31.488,46.784,57.813,57.621 c13.141,5.397,26.88,8.107,40.661,8.107c13.888,0,27.776-2.752,41.003-8.256c26.304-10.965,46.763-31.488,57.621-57.835 C514.773,290.444,514.709,261.452,503.765,235.17z M154.603,363.468c0.043,0.064,0.128,0.085,0.192,0.149 c9.749,11.243,15.872,25.707,15.872,41.728c0,35.285-28.715,64-64,64c-35.307,0-64-28.715-64-64 c0-15.979,6.08-30.421,15.808-41.664c0.064-0.085,0.171-0.128,0.235-0.213C83.669,334.924,129.643,334.924,154.603,363.468z M464.469,300.535c-6.507,15.808-18.773,28.139-34.56,34.688c-15.808,6.613-33.216,6.613-48.981,0.107 c-15.808-6.507-28.117-18.795-34.709-34.581c-6.144-14.741-6.08-30.4-1.429-44.501c0.043-0.107,0.128-0.192,0.149-0.299 c2.965-8.768,7.531-16.512,13.376-22.997c0.192-0.192,0.32-0.427,0.512-0.64c2.603-2.816,5.547-5.269,8.64-7.552 c0.533-0.384,0.96-0.875,1.493-1.237c3.627-2.539,7.552-4.693,11.733-6.443c4.139-1.728,8.405-2.965,12.715-3.776 c0.768-0.149,1.579-0.107,2.368-0.235c3.691-0.533,7.424-0.917,11.157-0.789c0.192,0,0.363,0.043,0.555,0.064 c8.789,0.384,17.6,2.624,25.963,6.741c0.149,0.085,0.32,0.085,0.469,0.149c13.696,6.869,24.512,18.048,30.464,32.32v0.021 C470.955,267.34,470.997,284.727,464.469,300.535z"></path>
				</g>
			</g>
		</g>
	</symbol>
	<symbol height="30px" width="30px" version="1.1" id="plane"
		xmlns="http://www.w3.org/2000/svg"
		xmlns:xlink="http://www.w3.org/1999/xlink" viewBox="0 0 499.81 499.81" xml:space="preserve" fill="#fff">
		<g id="SVGRepo_bgCarrier" stroke-width="0"></g>
		<g id="SVGRepo_tracerCarrier" stroke-linecap="round" stroke-linejoin="round"></g>
		<g id="SVGRepo_iconCarrier">
			<g>
				<g>
					<path style="fill:#fff;" d="M34.059,254.835L2.837,349.37h40.432l27.629-54.193H220.61l-40.854,123.684h45.902l63.053-123.684 h169.017c23.24,0,42.082-18.842,42.082-42.082s-18.842-42.082-42.082-42.082H291.97l-27.223-53.405l-23.857-46.796l-15.225-29.864 h-45.902l9.86,29.864l15.452,46.796l17.639,53.405H72.978l-27.223-53.405l-3.008-5.893H0l1.951,5.901L34.059,254.835z"></path>
				</g>
			</g>
		</g>
	</symbol>
	<symbol id="flag" viewBox="0 0 24 24" version="1.1"
		xmlns="http://www.w3.org/2000/svg"
		xmlns:xlink="http://www.w3.org/1999/xlink" fill="currentColor" stroke="#000000">
		<g id="SVGRepo_bgCarrier" stroke-width="0"></g>
		<g id="SVGRepo_tracerCarrier" stroke-linecap="round" stroke-linejoin="round"></g>
		<g id="SVGRepo_iconCarrier">
			<title>flag_3_fill</title>
			<g id="页面-1" stroke="none" stroke-width="1" fill="none" fill-rule="evenodd">
				<g id="Business" transform="translate(-1296.000000, -48.000000)" fill-rule="nonzero">
					<g id="flag_3_fill" transform="translate(1296.000000, 48.000000)">
						<path d="M24,0 L24,24 L0,24 L0,0 L24,0 Z M12.5934901,23.257841 L12.5819402,23.2595131 L12.5108777,23.2950439 L12.4918791,23.2987469 L12.4918791,23.2987469 L12.4767152,23.2950439 L12.4056548,23.2595131 C12.3958229,23.2563662 12.3870493,23.2590235 12.3821421,23.2649074 L12.3780323,23.275831 L12.360941,23.7031097 L12.3658947,23.7234994 L12.3769048,23.7357139 L12.4804777,23.8096931 L12.4953491,23.8136134 L12.4953491,23.8136134 L12.5071152,23.8096931 L12.6106902,23.7357139 L12.6232938,23.7196733 L12.6232938,23.7196733 L12.6266527,23.7031097 L12.609561,23.275831 C12.6075724,23.2657013 12.6010112,23.2592993 12.5934901,23.257841 L12.5934901,23.257841 Z M12.8583906,23.1452862 L12.8445485,23.1473072 L12.6598443,23.2396597 L12.6498822,23.2499052 L12.6498822,23.2499052 L12.6471943,23.2611114 L12.6650943,23.6906389 L12.6699349,23.7034178 L12.6699349,23.7034178 L12.678386,23.7104931 L12.8793402,23.8032389 C12.8914285,23.8068999 12.9022333,23.8029875 12.9078286,23.7952264 L12.9118235,23.7811639 L12.8776777,23.1665331 C12.8752882,23.1545897 12.8674102,23.1470016 12.8583906,23.1452862 L12.8583906,23.1452862 Z M12.1430473,23.1473072 C12.1332178,23.1423925 12.1221763,23.1452606 12.1156365,23.1525954 L12.1099173,23.1665331 L12.0757714,23.7811639 C12.0751323,23.7926639 12.0828099,23.8018602 12.0926481,23.8045676 L12.108256,23.8032389 L12.3092106,23.7104931 L12.3186497,23.7024347 L12.3186497,23.7024347 L12.3225043,23.6906389 L12.340401,23.2611114 L12.337245,23.2485176 L12.337245,23.2485176 L12.3277531,23.2396597 L12.1430473,23.1473072 Z" id="MingCute" fill-rule="nonzero"></path>
						<path d="M6.09641,2.38531 C5.10594,1.95611 4,2.68218 4,3.76165 L4,21 C4,21.5523 4.44771,22 5,22 C5.55229,22 6,21.5523 6,21 L6,16.6566 L19.3389,10.8764 C20.5437,10.3543 20.5437,8.6458 19.3389,8.12372 L6.09641,2.38531 Z" id="路径" fill="currentColor"></path>
					</g>
				</g>
			</g>
		</g>
	</symbol>
	<symbol fill="currentColor" viewBox="0 0 256 256" id="bulding"
		xmlns="http://www.w3.org/2000/svg" stroke="#000000">
		<g id="SVGRepo_bgCarrier" stroke-width="0"></g>
		<g id="SVGRepo_tracerCarrier" stroke-linecap="round" stroke-linejoin="round"></g>
		<g id="SVGRepo_iconCarrier">
			<path d="M224,115.53906V208a16.01833,16.01833,0,0,1-16,16H48a16.01833,16.01833,0,0,1-16-16V115.53857a16.03346,16.03346,0,0,1,5.23633-11.83837l79.99414-72.73438a15.93607,15.93607,0,0,1,21.52637-.001l80.00683,72.73536.001.001A16.03466,16.03466,0,0,1,224,115.53906Z"></path>
		</g>
	</symbol>
	<symbol version="1.1" id="placeholder-player"
		xmlns="http://www.w3.org/2000/svg"
		xmlns:xlink="http://www.w3.org/1999/xlink" viewBox="0 0 333.549 333.549" xml:space="preserve">
		<g id="XMLID_8_">
			<g id="XMLID_66_">
				<path id="XMLID_1095_" style="fill:#000;" d="M249.963,237.405c-18.667-6.681-51.458-11.736-51.458-81.376h-29.23h-5.002
			h-29.23c0,69.64-32.791,74.695-51.458,81.376c0,47.368,68.832,48.824,80.688,53.239v1.537c0,0,0.922-0.188,2.501-0.68
			c1.579,0.492,2.501,0.68,2.501,0.68v-1.537C181.13,286.23,249.963,284.773,249.963,237.405z"/>
				<path id="XMLID_1096_" style="fill:#000;" d="M198.505,156.03h-29.23h-2.167v135.573c1.37,0.414,2.167,0.579,2.167,0.579
			v-1.537c11.856-4.414,80.688-5.871,80.688-53.239C231.296,230.725,198.505,225.669,198.505,156.03z"/>
			</g>
			<g id="XMLID_63_">
				<path id="XMLID_1097_" style="fill:#000;" d="M166.776,178.782c-27.454,0-48.409-23.119-57.799-40.456
			s-15.888-69.445,4.34-96.897c19.808-26.883,53.459-23.838,53.459-23.838s33.649-3.045,53.458,23.838
			c20.226,27.452,13.726,79.56,4.335,96.897C215.177,155.663,194.224,178.782,166.776,178.782z"/>
				<path id="XMLID_1098_" style="fill:#000;" d="M220.234,41.429c-18.683-25.354-49.661-24.088-53.127-23.862v161.206
			c27.285-0.186,48.108-23.181,57.462-40.447C233.96,120.989,240.46,68.882,220.234,41.429z"/>
			</g>
			<g id="XMLID_59_">
				<g id="XMLID_1099_">
					<path id="XMLID_1100_" style="fill:#000;" d="M286.756,292.867v40.681H46.792v-40.681c0-30.431,17.377-56.963,40.605-70.913
				c6.043-3.641,19.69-6.43,26.844-8.196c5.953-1.488,52.866,21.691,52.866,21.691s49.246-23.179,55.199-21.691
				c7.154,1.766,17.802,4.554,23.844,8.196C269.379,235.904,286.756,262.436,286.756,292.867z"/>
				</g>
				<path id="XMLID_1101_" style="fill:#000;" d="M246.151,221.954c-6.043-3.641-16.69-6.429-23.844-8.195
			c-5.678-1.42-51.05,19.746-55.199,21.691v98.099h119.648v-40.681C286.756,262.436,269.379,235.904,246.151,221.954z"/>
			</g>
			<g id="XMLID_54_">
				<g id="XMLID_1102_">
					<path id="XMLID_1103_" style="fill:#000;" d="M122.774,235.314c-4.437,1.603-18.333-21.333-6.833-26.833l50.167,26.505
				C166.107,234.985,133.736,231.354,122.774,235.314z"/>
				</g>
				<g id="XMLID_1104_">
					<path id="XMLID_56_" style="fill:#000;" d="M211.441,235.314c4.437,1.603,18.333-21.333,6.833-26.833l-50.167,26.505
				C168.107,234.985,200.478,231.354,211.441,235.314z"/>
				</g>
			</g>
			<g id="XMLID_46_">
				<g id="XMLID_1105_">
					<path id="XMLID_1108_" style="fill:#000;" d="M246.604,221.624c-2.201-1.327-5.416-2.538-8.954-3.63
				c-3.631-1.308-7.562-2.436-11.147-3.38c-2.841,30.494-28.492,54.367-59.728,54.367c-31.096,0-56.665-23.657-59.697-53.955
				c-7.077,1.69-15.672,3.91-20.133,6.599c-23.228,13.951-40.605,40.482-40.605,70.914v40.681h120.887h119.076h0.906v-40.681
				C287.208,262.107,269.831,235.575,246.604,221.624z"/>
				</g>
				<path id="XMLID_1111_" style="fill:#000;" d="M246.604,221.625c-2.201-1.327-5.416-2.538-8.954-3.63
			c-3.631-1.308-7.562-2.436-11.147-3.38c-2.831,30.385-28.31,54.188-59.395,54.359v64.246h0.12h119.076h0.906v-40.681
			C287.208,262.107,269.831,235.575,246.604,221.625z"/>
			</g>
			<g id="XMLID_37_">
				<g id="XMLID_1112_">
					<path id="XMLID_1113_" style="fill:#000;" d="M191.052,135.913c-13.237,0-19.616-9.66-24.254-16.87
				c-0.231,0.383-0.464,0.772-0.701,1.168c-4.188,6.995-9.399,15.702-23.601,15.702c-15.926,0-27.486-11.392-27.486-27.088v-0.414
				l0.078-0.408c0.424-2.204,2.991-13.202,11.937-13.202h26.208c1.872,0,3.755,0.408,5.446,1.179l0.64,0.292l7.456,6.321
				l7.455-6.321l0.64-0.292c1.691-0.771,3.574-1.179,5.446-1.179h26.209c8.945,0,11.512,10.997,11.936,13.202l0.078,0.408v0.414
				C218.538,124.52,206.978,135.913,191.052,135.913z M172.71,110.16l1.168,1.778c0.439,0.668,0.877,1.349,1.32,2.037
				c5.048,7.851,8.634,12.617,15.854,12.617c10.151,0,17.284-7.103,17.481-17.33c-0.485-2.106-1.558-4.465-2.338-5.141h-25.88
				c-0.188,0-0.375,0.021-0.557,0.063L172.71,110.16z M125.014,109.254c0.194,10.232,7.328,17.338,17.482,17.338
				c7.943,0,10.692-3.946,14.868-10.922c0.733-1.225,1.491-2.491,2.306-3.733l1.168-1.779l-7.048-5.975
				c-0.182-0.042-0.368-0.063-0.557-0.063h-25.88C126.572,104.799,125.485,107.185,125.014,109.254z"/>
				</g>
				<path id="XMLID_1117_" style="fill:#000;" d="M218.46,108.003c-0.424-2.205-2.991-13.202-11.936-13.202h-26.209
			c-1.872,0-3.755,0.408-5.446,1.179l-0.64,0.292l-7.122,6.039v17.211c4.614,7.151,10.995,16.391,23.945,16.391
			c15.926,0,27.486-11.393,27.486-27.088v-0.414L218.46,108.003z M191.052,126.593c-7.221,0-10.807-4.767-15.854-12.618
			c-0.442-0.688-0.881-1.369-1.32-2.037l-1.168-1.778l7.048-5.976c0.182-0.042,0.368-0.063,0.557-0.063h25.88
			c0.781,0.676,1.853,3.036,2.338,5.142C208.336,119.49,201.203,126.593,191.052,126.593z"/>
			</g>
			<g id="XMLID_34_">
				<path id="XMLID_36_" style="fill:#000;" d="M202.113,25.918c0,0-24.427-32.813-39.707-24.598
			c-39.045,20.991-44.219,18.365-52.979,21.408c-21.241,7.378-21.798-2.595-19.122,13.776c8.879,54.319-0.557,79.337,15.961,59.147
			s22.025-15.423,64.073-20.012s15.256-23.363,37.28-8.18s24.919,42.732,28.589,42.732c3.671,0,11.84-52.59,6.283-68.911
			C230.629,6.439,202.113,25.918,202.113,25.918z"/>
				<path id="XMLID_1120_" style="fill:#000;" d="M242.491,41.281c-11.862-34.842-40.378-15.362-40.378-15.362
			s-19.894-26.72-35.005-25.896V75.98c1.057-0.108,2.124-0.219,3.231-0.34c42.047-4.588,15.256-23.363,37.28-8.18
			c22.025,15.184,24.919,42.732,28.589,42.732S248.048,57.603,242.491,41.281z"/>
			</g>
			<g id="XMLID_9_">

				<ellipse id="XMLID_33_" transform="matrix(0.3543 0.9351 -0.9351 0.3543 171.4079 -26.089)" style="fill:#000;" cx="104.596" cy="111.077" rx="17.187" ry="10.048"/>

				<ellipse id="XMLID_32_" transform="matrix(0.3543 -0.9351 0.9351 0.3543 43.9645 285.8114)" style="fill:#000;" cx="228.947" cy="111.07" rx="17.187" ry="10.048"/>
			</g>
		</g>
	</symbol>
	<symbol id="money" viewBox="0 0 100 100"
		xmlns="http://www.w3.org/2000/svg">
		<path fill-rule="evenodd" clip-rule="evenodd" fill="#24AE5F" d="M23.25 79L0 67V32.656L51.75 7 75 19v34.5L23.25 79z"/>
		<path fill-rule="evenodd" clip-rule="evenodd" fill="#1E9450" d="M0 64.554v2.983l23.193 11.932 51.622-25.356V51.13L23.193 76.486 0 64.554zm0-5.22v2.983l23.193 11.932 51.622-25.355V45.91L23.193 71.266 0 59.334zm0-10.441v2.983l23.193 11.932 51.622-25.355V35.47L23.193 60.825 0 48.893zm0 5.22v2.983l23.193 11.932 51.622-25.356v-2.983L23.193 66.046 0 54.113zm0-10.44v2.983l23.193 11.932 51.622-25.356V30.25L23.193 55.605 0 43.673zm23.251 1.462L0 33.084v3.013l23.251 12.05L75.003 22.54v-3.013L23.251 45.135zM0 38.453v2.983l23.251 11.932 51.752-25.356v-2.983L23.251 50.385 0 38.453z"/>
		<path fill-rule="evenodd" clip-rule="evenodd" fill="#24AE5F" d="M48.133 91.884L24.998 79.951V50.647l51.495-25.355L100 37.299v29L48.133 91.884z"/>
		<path fill-rule="evenodd" clip-rule="evenodd" fill="#1E9450" d="M25 77.085v2.983L48.25 92 100 66.644v-2.983L48.25 89.017 25 77.085zm0-5.22v2.983L48.25 86.78 100 61.424v-2.983L48.25 83.796 25 71.865zm0-10.441v2.983l23.25 11.932L100 50.983V48L48.25 73.356 25 61.424zm0 5.22v2.983L48.25 81.56 100 56.204v-2.983L48.25 78.576 25 66.644zm0-10.44v2.983l23.25 11.932L100 45.763V42.78L48.25 68.136 25 56.204zm23.25 6.367L25 50.64v2.983l23.25 11.932L100 40.199v-2.983L48.25 62.571z"/>
		<path opacity=".1" d="M23.193 45.165L0 33.25v34.344L23.25 79.5l-.057-34.335zm25 17.435L25 50.685v29.292l23.25 11.906-.057-29.283z"/>
		<path fill-rule="evenodd" clip-rule="evenodd" fill="#1E9450" d="M59.996 50.609l-11.363 5.459-9.702-5.22 13.138-6.436s-.912-2.62-.354-3.019c-.01.047-19.386 9.692-19.386 9.692l16.583 8.291 17.048-8.523s-1.669.055-3.148-.006c-1.502-.06-2.816-.238-2.816-.238zm13.446-3.496L93.5 37.5l-16.299-8.849-17.032 8.515c2.582-.133 4.697.978 4.697.978l12.126-5.94 10.448 5.221-13.99 6.72-.008 2.968z"/>
		<path fill="#1E9450" d="M64.235 46.958a5.58 5.58 0 0 0 1.99-.302l-3.529-1.87-.3.078-.384.123c-.523.157-1.059.302-1.61.433-.551.131-1.111.213-1.68.246s-1.137-.001-1.702-.101a5.753 5.753 0 0 1-1.693-.597c-.574-.304-.973-.63-1.196-.977-.223-.348-.306-.694-.25-1.04.056-.346.236-.686.538-1.019a5.136 5.136 0 0 1 1.151-.924l-1.3-.689.981-.52 1.3.689a11.139 11.139 0 0 1 1.734-.57 9.4 9.4 0 0 1 1.831-.255 8.713 8.713 0 0 1 1.887.137 7.553 7.553 0 0 1 1.886.612l-2.361 1.251a3.822 3.822 0 0 0-1.564-.389c-.581-.026-1.06.061-1.437.261l2.989 1.584.509-.162.559-.171c1.045-.315 1.956-.502 2.731-.562.775-.058 1.449-.048 2.02.031.571.08 1.056.205 1.455.374.399.171.74.331 1.021.48.248.131.499.329.754.594.255.265.405.576.449.934.045.358-.059.753-.309 1.184-.251.431-.764.882-1.538 1.353l1.435.761-.981.52-1.435-.761c-1.332.61-2.69.918-4.075.924-1.385.007-2.797-.313-4.237-.959l2.344-1.242a4.315 4.315 0 0 0 2.017.541zm3.45-1.229c.143-.153.233-.311.27-.474a.693.693 0 0 0-.074-.489c-.086-.163-.264-.316-.535-.459a2.616 2.616 0 0 0-1.395-.308c-.491.028-1.154.167-1.988.418l3.242 1.718a2.6 2.6 0 0 0 .48-.406zM57.08 42.391a.76.76 0 0 0-.22.394.545.545 0 0 0 .098.413c.091.137.255.268.492.393.372.197.775.288 1.21.272.435-.016.981-.133 1.637-.349l-2.753-1.458a1.841 1.841 0 0 0-.464.335z"/>
		<path fill-rule="evenodd" clip-rule="evenodd" fill="#1E9450" d="M34.583 32.609L23.22 38.068l-9.702-5.22 13.138-6.436s-.913-2.62-.354-3.019c-.01.047-19.386 9.692-19.386 9.692l16.583 8.291 17.048-8.523s-1.669.055-3.148-.006c-1.502-.06-2.816-.238-2.816-.238zm13.446-3.496L68.087 19.5l-16.299-8.849-17.032 8.515c2.582-.133 4.697.978 4.697.978l12.126-5.94 10.448 5.221-13.989 6.72-.009 2.968z"/>
		<path fill="#1E9450" d="M38.822 28.958a5.558 5.558 0 0 0 1.99-.302l-3.53-1.87-.3.078-.384.123a28.85 28.85 0 0 1-1.61.433c-.551.131-1.111.213-1.68.246s-1.136-.001-1.702-.101a5.753 5.753 0 0 1-1.693-.597c-.574-.304-.973-.63-1.196-.977-.223-.348-.306-.694-.25-1.04.057-.346.236-.685.538-1.018a5.136 5.136 0 0 1 1.151-.924l-1.3-.689.981-.52 1.3.689a11.139 11.139 0 0 1 1.734-.57 9.4 9.4 0 0 1 1.831-.255 8.713 8.713 0 0 1 1.887.137 7.553 7.553 0 0 1 1.886.612l-2.361 1.251a3.822 3.822 0 0 0-1.564-.389c-.581-.026-1.06.061-1.437.261l2.989 1.584.509-.163.559-.171c1.045-.315 1.956-.502 2.731-.562.775-.059 1.449-.048 2.02.031.571.08 1.056.205 1.455.375.399.171.74.331 1.021.48.248.131.499.329.754.594.255.265.405.576.449.934.045.358-.059.753-.309 1.184-.251.431-.764.882-1.538 1.353l1.435.761-.981.52-1.435-.761c-1.332.61-2.69.918-4.075.924-1.385.007-2.797-.313-4.237-.959l2.344-1.242c.63.345 1.303.525 2.018.54zm3.45-1.229c.143-.153.233-.311.269-.474a.693.693 0 0 0-.074-.489c-.086-.163-.264-.316-.535-.46a2.616 2.616 0 0 0-1.395-.308l-1.988.419 3.242 1.718c.178-.117.338-.252.481-.406zm-10.605-3.338a.76.76 0 0 0-.22.394.545.545 0 0 0 .098.413c.092.137.255.268.492.393.372.197.775.288 1.211.272.435-.016.981-.133 1.637-.349l-2.753-1.458a1.83 1.83 0 0 0-.465.335z"/>
	</symbol>
	<symbol version="1.1" id="bank"
		xmlns="http://www.w3.org/2000/svg"
		xmlns:xlink="http://www.w3.org/1999/xlink" viewBox="0 0 512 512" xml:space="preserve">
		<circle style="fill:#88C5CC;" cx="256" cy="256" r="256"/>
		<rect x="124" y="200" style="fill:#406A80;" width="264" height="232"/>
		<rect x="108" y="216" style="fill:#E6E6E6;" width="64" height="200"/>
		<g>
			<rect x="116" y="216" style="fill:#CCCCCC;" width="8" height="200"/>
			<rect x="136" y="216" style="fill:#CCCCCC;" width="8" height="200"/>
			<rect x="156" y="216" style="fill:#CCCCCC;" width="8" height="200"/>
		</g>
		<g>
			<rect x="340" y="216" style="fill:#E6E6E6;" width="64" height="200"/>
			<path style="fill:#E6E6E6;" d="M40,512v-32c0-4.4,3.6-8,8-8h416c4.4,0,8,3.6,8,8v32H40z"/>
			<path style="fill:#E6E6E6;" d="M64,472v-32c0-4.4,3.6-8,8-8h368c4.4,0,8,3.6,8,8v32H64z"/>
		</g>
		<path style="fill:#F5F5F5;" d="M433.656,170.344l-176-120C256.096,48.784,254.048,48,252,48s-4.096,0.784-5.656,2.344l-176,120
	c-1.548,1.544-2.328,3.628-2.344,5.656c-0.016,2.068,0.764,4.08,2.344,5.656C71.908,183.22,73.952,184,76,184h176h176
	c2.048,0,4.092-0.78,5.656-2.344c1.58-1.58,2.36-3.588,2.344-5.656C435.984,173.972,435.204,171.888,433.656,170.344z"/>
		<g>
			<polygon style="fill:#CCCCCC;" points="102.184,168 252,65.852 401.816,168 	"/>
			<path style="fill:#CCCCCC;" d="M452,192c0,4.4-3.6,8-8,8H60c-4.4,0-8-3.6-8-8l0,0c0-4.4,3.6-8,8-8h384C448.4,184,452,187.6,452,192
		L452,192z"/>
		</g>
		<rect x="224" y="216" style="fill:#E6E6E6;" width="64" height="200"/>
		<g>
			<rect x="232" y="216" style="fill:#CCCCCC;" width="8" height="200"/>
			<rect x="252" y="216" style="fill:#CCCCCC;" width="8" height="200"/>
			<rect x="272" y="216" style="fill:#CCCCCC;" width="8" height="200"/>
			<rect x="348" y="216" style="fill:#CCCCCC;" width="8" height="200"/>
			<rect x="368" y="216" style="fill:#CCCCCC;" width="8" height="200"/>
			<rect x="388" y="216" style="fill:#CCCCCC;" width="8" height="200"/>
		</g>
		<g>
			<path style="fill:#F5F5F5;" d="M180,424c0,4.4-3.6,8-8,8h-64c-4.4,0-8-3.6-8-8l0,0c0-4.4,3.6-8,8-8h64C176.4,416,180,419.6,180,424
		L180,424z"/>
			<path style="fill:#F5F5F5;" d="M180,208c0,4.4-3.6,8-8,8h-64c-4.4,0-8-3.6-8-8l0,0c0-4.4,3.6-8,8-8h64C176.4,200,180,203.6,180,208
		L180,208z"/>
			<path style="fill:#F5F5F5;" d="M296,424c0,4.4-3.6,8-8,8h-64c-4.4,0-8-3.6-8-8l0,0c0-4.4,3.6-8,8-8h64C292.4,416,296,419.6,296,424
		L296,424z"/>
			<path style="fill:#F5F5F5;" d="M296,208c0,4.4-3.6,8-8,8h-64c-4.4,0-8-3.6-8-8l0,0c0-4.4,3.6-8,8-8h64C292.4,200,296,203.6,296,208
		L296,208z"/>
			<path style="fill:#F5F5F5;" d="M412,424c0,4.4-3.6,8-8,8h-64c-4.4,0-8-3.6-8-8l0,0c0-4.4,3.6-8,8-8h64C408.4,416,412,419.6,412,424
		L412,424z"/>
			<path style="fill:#F5F5F5;" d="M412,208c0,4.4-3.6,8-8,8h-64c-4.4,0-8-3.6-8-8l0,0c0-4.4,3.6-8,8-8h64C408.4,200,412,203.6,412,208
		L412,208z"/>
		</g>
		<rect x="64" y="468" style="fill:#CCCCCC;" width="384" height="4"/>
		<g>
			<path style="fill:#2179A6;" d="M252,140c-6.616,0-12-5.384-12-12c0-2.208,1.792-4,4-4s4,1.792,4,4c0,2.204,1.796,4,4,4s4-1.796,4-4
		s-1.796-4-4-4c-6.616,0-12-5.384-12-12s5.384-12,12-12s12,5.384,12,12c0,2.208-1.792,4-4,4s-4-1.792-4-4c0-2.204-1.796-4-4-4
		s-4,1.796-4,4s1.796,4,4,4c6.616,0,12,5.384,12,12S258.616,140,252,140z"/>
			<path style="fill:#2179A6;" d="M252,108c-2.208,0-4-1.792-4-4v-8c0-2.208,1.792-4,4-4s4,1.792,4,4v8
		C256,106.208,254.208,108,252,108z"/>
			<path style="fill:#2179A6;" d="M252,148c-2.208,0-4-1.792-4-4v-8c0-2.208,1.792-4,4-4s4,1.792,4,4v8
		C256,146.208,254.208,148,252,148z"/>
		</g>
	</symbol>
	<symbol viewBox="0 0 1024 1024" id="chance" version="1.1"
		xmlns="http://www.w3.org/2000/svg" fill="#000000">
		<g id="SVGRepo_bgCarrier" stroke-width="0"></g>
		<g id="SVGRepo_tracerCarrier" stroke-linecap="round" stroke-linejoin="round"></g>
		<g id="SVGRepo_iconCarrier">
			<path d="M715.720415 207.522102C675.902539 136.26685 603.803606 95.397443 518.015326 95.397443c-129.594189 0-205.287984 72.306782-238.682003 195.401348-20.885213 76.845665 110.976883 131.618411 140.38594 27.173916 15.792407-56.028029 37.099461-79.499576 98.296063-79.499576 33.883437 0 58.475115 13.134401 72.864799 38.912762 15.649063 28.014526 14.18286 62.384309 3.633769 79.571248-17.119363 27.874254-35.489913 44.013758-56.72939 62.663829-44.432528 39.05201-99.619947 88.864031-99.619946 221.809398 0 70.489385 71.537844 71.537844 71.537843 71.537844 39.470779 0 71.537844-32.067064 71.537844-71.537844 0-69.581199 14.880125-82.643928 50.856384-114.224647 25.013518-21.933671 55.960452-49.11066 84.325148-95.35956 39.677604-64.691123 39.399107-152.714544-0.701362-224.324059z" fill="#27323A"></path>
			<path d="M670.72987 403.764058c-24.240485 39.399107-50.648535 62.595229-73.980834 83.134369-40.172141 35.210392-69.16243 60.710256-69.16243 154.531941 0 9.850801-7.965828 17.884205-17.884205 17.884205-9.850801 0-17.884205-8.033404-17.884205-17.884205 0-110.031836 39.470779-144.68114 81.316973-181.430432 22.494761-19.769178 45.759483-40.168045 67.066536-74.960692 22.355512-36.326427 21.307054-91.374598-2.514662-133.850481-23.893388-42.758475-66.436847-66.369271-119.671717-66.369271-86.768138 0-134.762763 39.12061-150.969843 123.022894-1.884973 9.711552-11.213592 16.070904-20.925144 14.182859-9.711552-1.884973-16.067832-11.245333-14.181836-20.956885 19.493753-100.879326 82.05417-152.017278 186.076823-152.017278 66.78804 0 120.368983 30.11042 150.898172 84.672245 30.32134 54.071384 31.018606 122.393204 1.816372 170.040731z" fill="#F4CE73"></path>
			<path d="M513.19385 757.121218c-47.433535 0-85.859952 38.423345-85.859951 85.859952 0 47.433535 38.426416 85.859952 85.859951 85.859952 47.364935 0 85.791351-38.426416 85.791352-85.859952 0-47.436607-38.426416-85.859952-85.791352-85.859952z" fill="#27323A"></path>
			<path d="M513.19385 875.187483c-17.812533 0-32.206313-14.39378-32.206313-32.206313 0-17.744957 14.39378-32.206313 32.206313-32.206313 17.744957 0 32.138736 14.461356 32.138737 32.206313-0.001024 17.812533-14.39378 32.206313-32.138737 32.206313z" fill="#79CCBF"></path>
		</g>
	</symbol>
	<symbol version="1.1" id="avatar1"
		xmlns="http://www.w3.org/2000/svg"
		xmlns:xlink="http://www.w3.org/1999/xlink" viewBox="0 0 333.549 333.549" xml:space="preserve">
		<g id="XMLID_8_">
			<g id="XMLID_66_">
				<path id="XMLID_1095_" style="fill:#F3D8B6;" d="M249.963,237.405c-18.667-6.681-51.458-11.736-51.458-81.376h-29.23h-5.002
			h-29.23c0,69.64-32.791,74.695-51.458,81.376c0,47.368,68.832,48.824,80.688,53.239v1.537c0,0,0.922-0.188,2.501-0.68
			c1.579,0.492,2.501,0.68,2.501,0.68v-1.537C181.13,286.23,249.963,284.773,249.963,237.405z"/>
				<path id="XMLID_1096_" style="fill:#EEC8A2;" d="M198.505,156.03h-29.23h-2.167v135.573c1.37,0.414,2.167,0.579,2.167,0.579
			v-1.537c11.856-4.414,80.688-5.871,80.688-53.239C231.296,230.725,198.505,225.669,198.505,156.03z"/>
			</g>
			<g id="XMLID_63_">
				<path id="XMLID_1097_" style="fill:#F3DBC4;" d="M166.776,178.782c-27.454,0-48.409-23.119-57.799-40.456
			s-15.888-69.445,4.34-96.897c19.808-26.883,53.459-23.838,53.459-23.838s33.649-3.045,53.458,23.838
			c20.226,27.452,13.726,79.56,4.335,96.897C215.177,155.663,194.224,178.782,166.776,178.782z"/>
				<path id="XMLID_1098_" style="fill:#EDCEAE;" d="M220.234,41.429c-18.683-25.354-49.661-24.088-53.127-23.862v161.206
			c27.285-0.186,48.108-23.181,57.462-40.447C233.96,120.989,240.46,68.882,220.234,41.429z"/>
			</g>
			<g id="XMLID_59_">
				<g id="XMLID_1099_">
					<path id="XMLID_1100_" style="fill:#DFE0F2;" d="M286.756,292.867v40.681H46.792v-40.681c0-30.431,17.377-56.963,40.605-70.913
				c6.043-3.641,19.69-6.43,26.844-8.196c5.953-1.488,52.866,21.691,52.866,21.691s49.246-23.179,55.199-21.691
				c7.154,1.766,17.802,4.554,23.844,8.196C269.379,235.904,286.756,262.436,286.756,292.867z"/>
				</g>
				<path id="XMLID_1101_" style="fill:#C6C8D7;" d="M246.151,221.954c-6.043-3.641-16.69-6.429-23.844-8.195
			c-5.678-1.42-51.05,19.746-55.199,21.691v98.099h119.648v-40.681C286.756,262.436,269.379,235.904,246.151,221.954z"/>
			</g>
			<g id="XMLID_54_">
				<g id="XMLID_1102_">
					<path id="XMLID_1103_" style="fill:#FFFFFF;" d="M122.774,235.314c-4.437,1.603-18.333-21.333-6.833-26.833l50.167,26.505
				C166.107,234.985,133.736,231.354,122.774,235.314z"/>
				</g>
				<g id="XMLID_1104_">
					<path id="XMLID_56_" style="fill:#DEDDE0;" d="M211.441,235.314c4.437,1.603,18.333-21.333,6.833-26.833l-50.167,26.505
				C168.107,234.985,200.478,231.354,211.441,235.314z"/>
				</g>
			</g>
			<g id="XMLID_46_">
				<g id="XMLID_1105_">
					<path id="XMLID_1108_" style="fill:currentColor;" d="M246.604,221.624c-2.201-1.327-5.416-2.538-8.954-3.63
				c-3.631-1.308-7.562-2.436-11.147-3.38c-2.841,30.494-28.492,54.367-59.728,54.367c-31.096,0-56.665-23.657-59.697-53.955
				c-7.077,1.69-15.672,3.91-20.133,6.599c-23.228,13.951-40.605,40.482-40.605,70.914v40.681h120.887h119.076h0.906v-40.681
				C287.208,262.107,269.831,235.575,246.604,221.624z"/>
				</g>
				<path id="XMLID_1111_" style="fill:currentColor;" d="M246.604,221.625c-2.201-1.327-5.416-2.538-8.954-3.63
			c-3.631-1.308-7.562-2.436-11.147-3.38c-2.831,30.385-28.31,54.188-59.395,54.359v64.246h0.12h119.076h0.906v-40.681
			C287.208,262.107,269.831,235.575,246.604,221.625z"/>
			</g>
			<g id="XMLID_37_">
				<g id="XMLID_1112_">
					<path id="XMLID_1113_" style="fill:#2C2B2B;" d="M191.052,135.913c-13.237,0-19.616-9.66-24.254-16.87
				c-0.231,0.383-0.464,0.772-0.701,1.168c-4.188,6.995-9.399,15.702-23.601,15.702c-15.926,0-27.486-11.392-27.486-27.088v-0.414
				l0.078-0.408c0.424-2.204,2.991-13.202,11.937-13.202h26.208c1.872,0,3.755,0.408,5.446,1.179l0.64,0.292l7.456,6.321
				l7.455-6.321l0.64-0.292c1.691-0.771,3.574-1.179,5.446-1.179h26.209c8.945,0,11.512,10.997,11.936,13.202l0.078,0.408v0.414
				C218.538,124.52,206.978,135.913,191.052,135.913z M172.71,110.16l1.168,1.778c0.439,0.668,0.877,1.349,1.32,2.037
				c5.048,7.851,8.634,12.617,15.854,12.617c10.151,0,17.284-7.103,17.481-17.33c-0.485-2.106-1.558-4.465-2.338-5.141h-25.88
				c-0.188,0-0.375,0.021-0.557,0.063L172.71,110.16z M125.014,109.254c0.194,10.232,7.328,17.338,17.482,17.338
				c7.943,0,10.692-3.946,14.868-10.922c0.733-1.225,1.491-2.491,2.306-3.733l1.168-1.779l-7.048-5.975
				c-0.182-0.042-0.368-0.063-0.557-0.063h-25.88C126.572,104.799,125.485,107.185,125.014,109.254z"/>
				</g>
				<path id="XMLID_1117_" style="fill:#272525;" d="M218.46,108.003c-0.424-2.205-2.991-13.202-11.936-13.202h-26.209
			c-1.872,0-3.755,0.408-5.446,1.179l-0.64,0.292l-7.122,6.039v17.211c4.614,7.151,10.995,16.391,23.945,16.391
			c15.926,0,27.486-11.393,27.486-27.088v-0.414L218.46,108.003z M191.052,126.593c-7.221,0-10.807-4.767-15.854-12.618
			c-0.442-0.688-0.881-1.369-1.32-2.037l-1.168-1.778l7.048-5.976c0.182-0.042,0.368-0.063,0.557-0.063h25.88
			c0.781,0.676,1.853,3.036,2.338,5.142C208.336,119.49,201.203,126.593,191.052,126.593z"/>
			</g>
			<g id="XMLID_34_">
				<path id="XMLID_36_" style="fill:#682234;" d="M202.113,25.918c0,0-24.427-32.813-39.707-24.598
			c-39.045,20.991-44.219,18.365-52.979,21.408c-21.241,7.378-21.798-2.595-19.122,13.776c8.879,54.319-0.557,79.337,15.961,59.147
			s22.025-15.423,64.073-20.012s15.256-23.363,37.28-8.18s24.919,42.732,28.589,42.732c3.671,0,11.84-52.59,6.283-68.911
			C230.629,6.439,202.113,25.918,202.113,25.918z"/>
				<path id="XMLID_1120_" style="fill:#581A2B;" d="M242.491,41.281c-11.862-34.842-40.378-15.362-40.378-15.362
			s-19.894-26.72-35.005-25.896V75.98c1.057-0.108,2.124-0.219,3.231-0.34c42.047-4.588,15.256-23.363,37.28-8.18
			c22.025,15.184,24.919,42.732,28.589,42.732S248.048,57.603,242.491,41.281z"/>
			</g>
			<g id="XMLID_9_">

				<ellipse id="XMLID_33_" transform="matrix(0.3543 0.9351 -0.9351 0.3543 171.4079 -26.089)" style="fill:#F3DBC4;" cx="104.596" cy="111.077" rx="17.187" ry="10.048"/>

				<ellipse id="XMLID_32_" transform="matrix(0.3543 -0.9351 0.9351 0.3543 43.9645 285.8114)" style="fill:#EDCEAE;" cx="228.947" cy="111.07" rx="17.187" ry="10.048"/>
			</g>
		</g>
	</symbol>
	<symbol version="1.1" id="avatar2"
		xmlns="http://www.w3.org/2000/svg"
		xmlns:xlink="http://www.w3.org/1999/xlink" viewBox="0 0 331.108 331.108" xml:space="preserve">
		<g id="XMLID_1481_">
			<g id="XMLID_1482_">
				<g id="XMLID_1483_">
					<path id="XMLID_1484_" style="fill:#F3D8B6;" d="M248.039,236.042c-18.667-6.681-51.458-11.736-51.458-81.376h-29.23h-5.002
				h-29.23c0,69.64-32.791,74.695-51.458,81.376c0,47.368,68.832,48.824,80.688,53.239v1.537c0,0,0.922-0.188,2.501-0.68
				c1.579,0.492,2.501,0.68,2.501,0.68v-1.537C179.207,284.866,248.039,283.409,248.039,236.042z"/>
				</g>
				<path id="XMLID_1485_" style="fill:#EEC8A2;" d="M196.582,154.666h-29.23h-2.251v135.547c1.421,0.433,2.251,0.604,2.251,0.604
			v-1.537c11.855-4.414,80.688-5.871,80.688-53.239C229.373,229.361,196.582,224.306,196.582,154.666z"/>
			</g>
			<g id="XMLID_1486_">
				<path id="XMLID_1487_" style="fill:#F3DBC4;" d="M165.103,176.828c-27.454,0-48.409-23.119-57.799-40.456
			s-15.888-79.445,4.34-106.897c19.808-26.883,53.459-13.838,53.459-13.838s33.649-13.045,53.458,13.838
			c20.226,27.452,13.726,89.56,4.335,106.897C213.504,153.709,192.551,176.828,165.103,176.828z"/>
				<path id="XMLID_1488_" style="fill:#EDCEAE;" d="M218.561,29.476c-19.81-26.883-53.458-13.838-53.458-13.838h-0.002v161.191h0.002
			c27.449,0,48.401-23.119,57.794-40.456C232.287,119.036,238.787,56.928,218.561,29.476z"/>
			</g>
			<g id="XMLID_1489_">
				<path id="XMLID_1492_" style="fill:#E1A98C;" d="M222.556,25.321c-2.159,0.08-12.282-31.303-39.282-24.303
			c-18.537,4.806-20.877,7.419-28.12,9.463c-29.41-9.014-57.539,14.472-56.495,36.488c1.759,37.07-4.778,36.505-0.295,49.454
			s8.466,23.407,8.466,23.407s0.996,3.565,2.988-16.854s-4.705-31.379,11.137-31.379c52.452,0-19.698,20.372,13.952,20.372
			c33.391,0,59.203-27.381,74.92-29.372c15.716-1.992,9.145,19.96,11.137,40.379s2.988,16.854,2.988,16.854s8.92-9.712,8.466-23.407
			C231.908,80.969,238.788,24.719,222.556,25.321z"/>
				<path id="XMLID_1493_" style="fill:#D2987B;" d="M222.556,25.322c-2.159,0.08-12.282-31.303-39.282-24.303
			c-9.171,2.377-14.375,4.218-18.173,5.719V85.04c18.973-8.253,34.142-21.103,44.726-22.443c15.717-1.992,9.145,19.96,11.137,40.379
			s2.988,16.854,2.988,16.854s8.92-9.712,8.466-23.407C231.908,80.969,238.788,24.719,222.556,25.322z"/>
			</g>
			<g id="XMLID_1494_">
				<path id="XMLID_1495_" style="fill:#A7B8D4;" d="M207.267,101.856h-27.689c-1.185,0-2.356,0.243-3.431,0.713l-10.874,3.873
			l-10.874-3.873c-1.075-0.47-2.246-0.713-3.431-0.713H123.28c-5.509,0-7.411,9.474-7.411,9.474
			c0,12.532,9.191,22.692,23.756,22.692c8.882,0,17.409-9.44,22.649-17.081h6c5.24,7.641,13.768,17.081,22.649,17.081
			c14.565,0,23.756-10.16,23.756-22.692C214.678,111.33,212.776,101.856,207.267,101.856z"/>
				<path id="XMLID_1496_" style="fill:#8AA4C2;" d="M207.267,101.856h-27.689c-1.185,0-2.356,0.243-3.431,0.713l-11.041,3.813v10.559
			h3.167c5.24,7.641,13.768,17.081,22.649,17.081c14.565,0,23.756-10.16,23.756-22.692
			C214.678,111.33,212.776,101.856,207.267,101.856z"/>
			</g>
			<g id="XMLID_1497_">
				<path id="XMLID_1498_" style="fill:currentColor;" d="M245.383,219.513c-2.201-1.327-5.416-2.538-8.955-3.63
			c-5.291-1.905-11.248-3.442-15.795-4.565c-1.89-0.473-9.146-0.102-15.118-13.184h-79.463
			c-5.328,13.132-11.814,12.767-13.484,13.184c-7.154,1.766-20.802,4.554-26.844,8.195c-23.228,13.951-40.605,40.482-40.605,70.914
			v40.681h239.964h0.906v-40.681C285.988,259.995,268.611,233.464,245.383,219.513z"/>
				<path id="XMLID_1499_" style="fill:currentColor;" d="M245.383,219.513c-2.201-1.327-5.416-2.538-8.955-3.63
			c-5.291-1.905-11.248-3.442-15.795-4.565c-1.89-0.473-9.146-0.102-15.118-13.184h-40.867v132.974h120.435h0.906v-40.681
			C285.988,259.995,268.611,233.464,245.383,219.513z"/>
			</g>
			<g id="XMLID_1500_">
				<g id="XMLID_1504_">
					<g id="XMLID_1502_">
						<path id="XMLID_1503_" style="fill:#E1A98C;" d="M231.779,102.653c-0.725,14.745-22.425,29.324-29.599,39.061
					c-16.801,22.803-37.079,3.255-37.079,3.255s-19.826,19.548-36.629-3.255c-7.173-9.735-28.871-24.311-29.596-39.054
					c-1.19,20.863,11.665,42.273,16.381,50.979c7.973,14.719,26.764,34.348,50.072,34.348c23.304,0,42.094-19.629,50.068-34.348
					C220.113,144.932,232.969,123.518,231.779,102.653z"/>
					</g>
				</g>
				<path id="XMLID_1506_" style="fill:#D2987B;" d="M231.779,102.653c-0.725,14.745-22.424,29.324-29.599,39.061
			c-16.801,22.803-37.08,3.255-37.08,3.255v43.012c0.076,0,0.152,0.006,0.228,0.006c23.304,0,42.094-19.628,50.068-34.348
			C220.113,144.932,232.969,123.518,231.779,102.653z"/>
			</g>
			<g id="XMLID_1507_">

				<ellipse id="XMLID_33_" transform="matrix(0.3543 -0.9351 0.9351 0.3543 44.7116 282.9862)" style="fill:#EDCEAE;" cx="227.275" cy="109.116" rx="17.187" ry="10.048"/>

				<ellipse id="XMLID_32_" transform="matrix(0.3543 0.9351 -0.9351 0.3543 168.501 -25.7861)" style="fill:#F3DBC4;" cx="102.923" cy="109.124" rx="17.187" ry="10.048"/>
			</g>
		</g>
	</symbol>
	<symbol version="1.1" id="avatar3"
		xmlns="http://www.w3.org/2000/svg"
		xmlns:xlink="http://www.w3.org/1999/xlink" viewBox="0 0 359.142 359.142" xml:space="preserve">
		<g id="XMLID_16_">
			<g id="XMLID_57_">
				<path id="XMLID_853_" style="fill:#545465;" d="M279.057,191.787c26.39-24.059,11.154-28.579,11.154-50.517
			C290.211,59.796,247.465,0,179.571,0S68.931,59.796,68.931,141.269c0,21.938-15.236,26.458,11.154,50.517
			C116.844,225.3,242.298,225.3,279.057,191.787z"/>
				<path id="XMLID_856_" style="fill:#494857;" d="M290.211,141.269C290.211,59.796,247.465,0,179.571,0c-0.014,0-0.028,0-0.042,0
			v216.921c40.567,0.006,81.142-8.372,99.528-25.135C305.447,167.728,290.211,163.207,290.211,141.269z"/>
			</g>
			<g id="XMLID_54_">
				<path id="XMLID_857_" style="fill:#F3D8B6;" d="M296.553,318.004v40.681H62.589v-40.681c0-30.431,14.377-56.963,37.605-70.913
			c6.043-3.641,12.69-6.43,19.844-8.196c5.953-1.488,12.254-2.272,18.842-2.272l40.691,24.002l40.691-24.002
			c6.588,0,12.889,0.784,18.842,2.272c7.154,1.766,13.802,4.554,19.844,8.196C282.175,261.041,296.553,287.573,296.553,318.004z"/>
				<path id="XMLID_858_" style="fill:#EEC8A2;" d="M258.948,247.09c-6.043-3.641-12.69-6.429-19.844-8.196
			c-5.953-1.489-12.254-2.272-18.842-2.272l-40.691,24.001l-0.042-0.024v98.085h117.023v-40.681
			C296.553,287.573,282.175,261.041,258.948,247.09z"/>
			</g>
			<g id="XMLID_51_">
				<path id="XMLID_859_" style="fill:currentColor;" d="M296.561,318.005v5.97h-80.98c0,0,37.33-80.53,43.38-76.88
			C282.181,261.045,296.561,287.575,296.561,318.005z"/>
				<path id="XMLID_52_" style="fill:#FF628B;" d="M62.581,318.005v5.97h80.98c0,0-37.33-80.53-43.38-76.88
			C76.961,261.045,62.581,287.575,62.581,318.005z"/>
			</g>
			<g id="XMLID_47_">
				<g id="XMLID_860_">
					<path id="XMLID_861_" style="fill:#F3D8B6;" d="M207.9,180.757h-26.884h-1.256h-0.379h-1.256h-26.884
				c0,74.552-36.43,67.808-36.43,67.808c0,47.368,51.162,62.392,63.313,66.806v1.537c0,0,0.533-0.11,1.446-0.359
				c0.912,0.249,1.446,0.359,1.446,0.359v-1.537c12.151-4.414,63.313-19.439,63.313-66.806
				C244.33,248.564,207.9,255.308,207.9,180.757z"/>
				</g>
				<path id="XMLID_862_" style="fill:#EEC8A2;" d="M207.9,180.756h-26.884h-1.256h-0.231V316.56c0.015-0.004,0.026-0.007,0.042-0.011
			c0.912,0.249,1.446,0.359,1.446,0.359v-1.537c12.151-4.414,63.313-19.439,63.313-66.806
			C244.33,248.565,207.9,255.308,207.9,180.756z"/>
			</g>
			<g id="XMLID_44_">
				<path id="XMLID_863_" style="fill:#F3DBC4;" d="M115.488,120.925c0.84,22.166,4.35,42.211,8.428,49.74
			c9.042,16.694,29.221,38.956,55.657,38.956c26.431,0,46.607-22.262,55.652-38.956c4.077-7.528,7.588-27.573,8.429-49.74H115.488z" />
				<path id="XMLID_864_" style="fill:#EDCEAE;" d="M179.529,120.925v88.695c0.015,0,0.029,0.001,0.043,0.001
			c26.431,0,46.607-22.262,55.652-38.957c4.077-7.528,7.588-27.573,8.429-49.74h-64.124V120.925z"/>
			</g>
			<g id="XMLID_37_">
				<g id="XMLID_865_">
					<path id="XMLID_43_" style="fill:currentColor;" d="M62.581,318.005v5.97h80.98c0,0-37.33-80.53-43.38-76.88
				C76.961,261.045,62.581,287.575,62.581,318.005z"/>
					<polygon id="XMLID_866_" style="fill:currentColor;" points="245.045,276.142 114.097,276.142 99.571,324.475 99.571,359.142 
				259.571,359.142 259.571,324.475 			"/>
				</g>
				<g id="XMLID_867_">
					<path id="XMLID_868_" style="fill:currentColor;" d="M296.561,318.005v5.97h-80.98c0,0,37.33-80.53,43.38-76.88
				C282.181,261.045,296.561,287.575,296.561,318.005z"/>
					<polygon id="XMLID_869_" style="fill:currentColor;" points="245.045,276.142 179.529,276.142 179.529,359.142 259.571,359.142 
				259.571,324.475 			"/>
				</g>
			</g>
			<g id="XMLID_34_">
				<circle id="XMLID_870_" style="fill:#FFFFFF;" cx="179.571" cy="334.973" r="8.5"/>
				<path id="XMLID_871_" style="fill:#DEDDE0;" d="M179.571,326.473c-0.014,0-0.028,0.002-0.042,0.002v16.996
			c0.014,0,0.028,0.002,0.042,0.002c4.694,0,8.5-3.806,8.5-8.5C188.071,330.279,184.265,326.473,179.571,326.473z"/>
			</g>
			<g id="XMLID_17_">
				<circle id="XMLID_872_" style="fill:#FFFFFF;" cx="179.571" cy="299.571" r="8.5"/>
				<path id="XMLID_873_" style="fill:#DEDDE0;" d="M179.571,291.071c-0.014,0-0.028,0.002-0.042,0.002v16.996
			c0.014,0,0.028,0.002,0.042,0.002c4.694,0,8.5-3.806,8.5-8.5C188.071,294.876,184.265,291.071,179.571,291.071z"/>
			</g>
		</g>
	</symbol>
	<symbol version="1.1" id="avatar4"
		xmlns="http://www.w3.org/2000/svg"
		xmlns:xlink="http://www.w3.org/1999/xlink" viewBox="0 0 357.696 357.696" xml:space="preserve">
		<g id="XMLID_11_">
			<g id="XMLID_45_">
				<path id="XMLID_1019_" style="fill:#C64832;" d="M210.233,218.28c43.802,0,77.304-35.54,77.256-79.342c0-0.227,0-0.45,0-0.669
			C287.488,56.796,246.742,0,178.848,0S70.208,56.796,70.208,138.269c0,0.219,0,0.442,0,0.669
			c-0.048,43.802,33.454,79.342,77.256,79.342H210.233z"/>
				<path id="XMLID_1022_" style="fill:#B2332D;" d="M287.488,138.269C287.488,56.796,246.742,0,178.848,0v218.28h31.385
			c43.802,0,77.304-35.54,77.256-79.342C287.488,138.712,287.488,138.489,287.488,138.269z"/>
			</g>
			<g id="XMLID_42_">
				<path id="XMLID_1023_" style="fill:#F3D8B6;" d="M207.177,175.281h-26.884h-1.256h-0.379h-1.256h-26.884
			c0,74.552-36.43,67.808-36.43,67.808c0,47.368,51.162,62.392,63.313,66.806v1.537c0,0,0.533-0.11,1.446-0.359
			c0.912,0.249,1.446,0.359,1.446,0.359v-1.537c12.151-4.414,63.313-19.439,63.313-66.806
			C243.607,243.089,207.177,249.833,207.177,175.281z"/>
				<path id="XMLID_1024_" style="fill:#EEC8A2;" d="M207.177,175.281h-26.884h-1.256h-0.189v135.792
			c0.912,0.249,1.446,0.359,1.446,0.359v-1.537c12.151-4.414,63.313-19.439,63.313-66.806
			C243.607,243.089,207.177,249.833,207.177,175.281z"/>
			</g>
			<g id="XMLID_39_">
				<path id="XMLID_1025_" style="fill:#F3DBC4;" d="M242.776,115.656c-0.091-0.006-0.187-0.013-0.286-0.021
			c-0.148-0.01-0.302-0.022-0.469-0.034c-0.102-0.007-0.206-0.015-0.315-0.023c-0.18-0.013-0.367-0.028-0.565-0.043
			c-0.129-0.01-0.258-0.02-0.394-0.031c-0.211-0.016-0.433-0.034-0.662-0.052c-0.134-0.011-0.265-0.021-0.405-0.032
			c-0.262-0.021-0.539-0.044-0.822-0.067c-0.132-0.011-0.258-0.021-0.395-0.033c-0.34-0.029-0.698-0.059-1.065-0.091
			c-0.091-0.008-0.177-0.015-0.27-0.023c-0.434-0.038-0.886-0.078-1.355-0.121c-0.048-0.004-0.092-0.008-0.14-0.012
			c-1.053-0.096-2.193-0.203-3.409-0.323c-0.036-0.003-0.074-0.007-0.11-0.011c-0.559-0.055-1.134-0.113-1.724-0.174
			c-0.122-0.012-0.249-0.026-0.372-0.039c-0.51-0.052-1.028-0.107-1.56-0.163c-0.173-0.019-0.35-0.038-0.525-0.057
			c-0.504-0.054-1.016-0.11-1.539-0.168c-0.186-0.021-0.374-0.042-0.562-0.063c-0.518-0.058-1.042-0.117-1.577-0.179
			c-0.214-0.025-0.428-0.05-0.644-0.075c-0.527-0.062-1.062-0.125-1.604-0.189c-0.221-0.027-0.441-0.053-0.665-0.08
			c-0.562-0.068-1.131-0.138-1.707-0.21c-0.212-0.027-0.422-0.052-0.635-0.079c-0.615-0.077-1.238-0.157-1.868-0.239
			c-0.182-0.023-0.361-0.046-0.544-0.07c-0.701-0.092-1.412-0.187-2.13-0.284c-0.121-0.016-0.24-0.032-0.361-0.049
			c-2.575-0.35-5.253-0.736-8.013-1.16c-0.072-0.011-0.145-0.023-0.217-0.034c-0.828-0.127-1.663-0.258-2.504-0.393
			c-0.187-0.03-0.376-0.061-0.564-0.091c-0.728-0.117-1.458-0.236-2.194-0.359c-0.253-0.042-0.507-0.085-0.761-0.128
			c-0.68-0.114-1.361-0.23-2.047-0.349c-0.285-0.049-0.571-0.1-0.857-0.15c-0.663-0.116-1.327-0.234-1.995-0.355
			c-0.302-0.054-0.603-0.109-0.906-0.165c-0.665-0.122-1.331-0.245-2-0.371c-0.3-0.056-0.599-0.113-0.9-0.17
			c-0.683-0.13-1.367-0.263-2.053-0.398c-0.289-0.057-0.577-0.113-0.867-0.171c-0.718-0.143-1.437-0.289-2.158-0.437
			c-0.256-0.052-0.511-0.104-0.767-0.157c-0.788-0.164-1.577-0.331-2.368-0.501c-0.192-0.041-0.384-0.081-0.576-0.123
			c-27.403-5.937-55.698-15.67-65.718-31.299c-5.057,33.582,0.023,77.854,6.563,89.929c9.042,16.694,29.221,38.957,55.657,38.957
			c26.431,0,46.607-22.262,55.652-38.957c4.098-7.565,7.624-27.773,8.443-50.072C242.888,115.664,242.838,115.66,242.776,115.656z" />
				<path id="XMLID_1026_" style="fill:#EDCEAE;" d="M242.776,115.656c-0.091-0.006-0.187-0.013-0.286-0.021
			c-0.148-0.01-0.302-0.022-0.469-0.034c-0.102-0.007-0.206-0.015-0.315-0.023c-0.18-0.013-0.367-0.028-0.565-0.043
			c-0.129-0.01-0.258-0.02-0.394-0.031c-0.211-0.016-0.433-0.034-0.662-0.052c-0.134-0.011-0.265-0.021-0.405-0.032
			c-0.262-0.021-0.539-0.044-0.822-0.067c-0.132-0.011-0.258-0.021-0.395-0.033c-0.34-0.029-0.698-0.059-1.065-0.091
			c-0.091-0.008-0.177-0.015-0.27-0.023c-0.434-0.038-0.886-0.078-1.355-0.121c-0.048-0.004-0.092-0.008-0.14-0.012
			c-1.053-0.096-2.193-0.203-3.409-0.323c-0.036-0.003-0.074-0.007-0.11-0.011c-0.559-0.055-1.134-0.113-1.724-0.174
			c-0.122-0.012-0.249-0.026-0.372-0.039c-0.51-0.052-1.028-0.107-1.56-0.163c-0.173-0.019-0.35-0.038-0.525-0.057
			c-0.504-0.054-1.016-0.11-1.539-0.168c-0.186-0.021-0.374-0.042-0.562-0.063c-0.518-0.058-1.042-0.117-1.577-0.179
			c-0.214-0.025-0.428-0.05-0.644-0.075c-0.527-0.062-1.062-0.125-1.604-0.189c-0.221-0.027-0.441-0.053-0.665-0.08
			c-0.562-0.068-1.131-0.138-1.707-0.21c-0.212-0.027-0.422-0.052-0.635-0.079c-0.615-0.077-1.238-0.157-1.868-0.239
			c-0.182-0.023-0.361-0.046-0.544-0.07c-0.701-0.092-1.412-0.187-2.13-0.284c-0.121-0.016-0.24-0.032-0.361-0.049
			c-2.575-0.35-5.253-0.736-8.013-1.16c-0.072-0.011-0.145-0.023-0.217-0.034c-0.828-0.127-1.663-0.258-2.504-0.393
			c-0.187-0.03-0.376-0.061-0.564-0.091c-0.728-0.117-1.458-0.236-2.194-0.359c-0.253-0.042-0.507-0.085-0.761-0.128
			c-0.68-0.114-1.361-0.23-2.047-0.349c-0.285-0.049-0.571-0.1-0.857-0.15c-0.663-0.116-1.327-0.234-1.995-0.355
			c-0.302-0.054-0.603-0.109-0.906-0.165c-0.665-0.122-1.331-0.245-2-0.371c-0.3-0.056-0.599-0.113-0.9-0.17
			c-0.683-0.13-1.367-0.263-2.053-0.398c-0.289-0.057-0.577-0.113-0.867-0.171c-0.718-0.143-1.437-0.289-2.158-0.437
			c-0.256-0.052-0.511-0.104-0.767-0.157c-0.788-0.164-1.577-0.331-2.368-0.501c-0.192-0.041-0.384-0.081-0.576-0.123
			c-1.166-0.253-2.333-0.515-3.5-0.781v98.368c0,0,0.001,0,0.002,0c26.431,0,46.607-22.262,55.652-38.956
			c4.098-7.566,7.624-27.774,8.443-50.072C242.888,115.664,242.838,115.66,242.776,115.656z"/>
			</g>
			<g id="XMLID_36_">
				<path id="XMLID_1027_" style="fill:currentColor;" d="M258.858,322.816v34.67h-160l-37,0.21v-41.35c0-30.43,14.38-56.96,37.6-70.91
			c6.05-3.65,12.69-6.43,19.85-8.2c0.4-0.1,0.81-0.2,1.22-0.29c4.79-1.11,9.79-1.77,14.99-1.93c0.22-0.01,0.45-0.01,0.67-0.02
			c-0.02,0.07-0.04,0.13-0.06,0.2c-1.15,4.02-1.78,8.26-1.78,12.65c0,25.2,20.37,45.63,45.5,45.63c18.51,0,34.42-11.08,41.53-26.99
			h2.96l6.31,10.3L258.858,322.816z"/>
				<path id="XMLID_1028_" style="fill:currentColor;" d="M258.238,245.437c-6.05-3.65-12.69-6.43-19.85-8.2c-0.4-0.1-0.8-0.19-1.2-0.28
			c-4.37-1.02-8.93-1.65-13.66-1.88c1.18,4.05,1.82,8.33,1.82,12.77c0,25.2-20.37,45.63-45.5,45.63c-0.23,0-0.46-0.01-0.7-0.01
			c-0.09-0.01-0.19-0.01-0.29-0.01v64.03h116.98v-41.14C295.838,285.917,281.458,259.386,258.238,245.437z"/>
			</g>
			<g id="XMLID_12_">
				<path id="XMLID_1029_" style="fill:#367992;" d="M237.338,236.966c-5.03-1.19-10.31-1.85-15.8-1.97c1.12,3.95,1.64,8.7,1.64,12.79
			c0,6.31-1.3,12.43-3.87,18.17c-1.49,3.34-3.39,6.49-5.67,9.38l-0.07,0.1c-0.3,0.37-0.6,0.74-0.93,1.13l-0.07,0.09
			c-0.95,1.1-1.97,2.19-3.05,3.24l-0.3,0.28c-0.32,0.3-0.64,0.6-0.96,0.88l-0.26,0.23c-0.6,0.52-1.23,1.05-1.88,1.56l-0.41,0.32
			c-0.3,0.23-0.61,0.46-0.9,0.67c-0.2,0.15-0.4,0.29-0.6,0.43c-0.3,0.21-0.6,0.41-0.89,0.61c-0.23,0.15-0.45,0.29-0.68,0.44
			l-0.1,0.06c-0.45,0.29-0.9,0.56-1.36,0.84c-0.28,0.16-0.57,0.33-0.86,0.49c-0.27,0.15-0.54,0.29-0.79,0.43
			c-0.31,0.16-0.62,0.32-0.96,0.49l-0.15,0.08c-0.19,0.09-0.39,0.19-0.58,0.28c-0.52,0.25-1.06,0.5-1.59,0.73l-0.63,0.25
			c-0.39,0.16-0.78,0.32-1.19,0.47c-0.23,0.09-0.47,0.18-0.7,0.26c-0.42,0.15-0.85,0.29-1.28,0.43l-0.55,0.18
			c-0.6,0.19-1.2,0.36-1.8,0.52l-0.57,0.14c-0.46,0.11-0.92,0.22-1.4,0.32l-0.61,0.13c-0.55,0.11-1.1,0.21-1.63,0.29l-0.34,0.06
			c-0.65,0.1-1.31,0.18-1.94,0.25l-0.58,0.05c-0.51,0.05-1.02,0.09-1.53,0.12l-0.6,0.03c-0.65,0.03-1.31,0.06-1.96,0.05
			c-0.18,0-0.35,0-0.53-0.01l-0.53-0.01c-23.91-0.52-43.36-20.46-43.36-44.46c0-4.23,0.6-8.45,1.8-12.53l-0.2-0.06l-0.61-0.18
			c-5.2,0.16-10.2,0.82-14.99,1.93c-0.67,3.57-1,7.2-1,10.84c0,15.66,6.02,30.44,16.95,41.62
			c6.497,6.64,14.298,11.557,22.831,14.534c-2.111,1.663-4.208,3.511-6.263,5.55c-2.925,2.931-5.5,5.971-7.65,9.032
			c-2.107,2.979-3.974,6.173-5.396,9.241c-0.676,1.461-1.256,2.853-1.728,4.14c-0.463,1.273-0.837,2.435-1.107,3.435
			c-0.562,2-0.739,3.329-0.747,3.385l-0.339,2.583l2.583-0.339c0.056-0.007,1.385-0.185,3.367-0.742
			c1.023-0.277,2.185-0.652,3.456-1.114c1.292-0.473,2.684-1.054,4.139-1.726c3.062-1.42,6.256-3.286,9.233-5.392
			c3.066-2.154,6.107-4.73,9.045-7.662c2.929-2.953,5.497-5.998,7.633-9.045c1.205-1.708,2.317-3.484,3.324-5.26
			c1.007,1.777,2.118,3.551,3.32,5.255c2.14,3.052,4.708,6.097,7.644,9.057c2.931,2.925,5.972,5.5,9.032,7.651
			c2.983,2.109,6.178,3.975,9.241,5.396c1.453,0.671,2.845,1.252,4.141,1.727c1.268,0.461,2.429,0.835,3.436,1.108
			c1.999,0.561,3.328,0.739,3.384,0.746l2.583,0.339l-0.339-2.583c-0.008-0.056-0.186-1.385-0.742-3.366
			c-0.275-1.019-0.649-2.181-1.114-3.457c-0.47-1.284-1.05-2.675-1.727-4.139c-1.422-3.064-3.287-6.259-5.392-9.233
			c-2.154-3.066-4.729-6.106-7.662-9.044c-2.048-2.032-4.142-3.877-6.249-5.538c0.124-0.044,0.25-0.083,0.374-0.128
			c0.33-0.11,0.65-0.23,0.95-0.35c0.53-0.19,1.05-0.4,1.59-0.63l0.23-0.09c0.2-0.08,0.4-0.16,0.6-0.25c0.72-0.3,1.44-0.63,2.14-0.97
			c0.3-0.14,0.59-0.28,0.88-0.43l0.11-0.05c0.42-0.21,0.84-0.43,1.27-0.66c0.36-0.19,0.72-0.38,1.07-0.58
			c0.39-0.22,0.78-0.44,1.16-0.66c0.61-0.36,1.22-0.74,1.9-1.17c0.31-0.2,0.62-0.39,0.94-0.6c0.4-0.27,0.8-0.55,1.2-0.83
			c0.26-0.19,0.53-0.37,0.8-0.57c0.41-0.3,0.82-0.6,1.2-0.89c0.15-0.12,0.29-0.23,0.43-0.34l0.13-0.11
			c0.87-0.67,1.71-1.37,2.52-2.09l0.33-0.28c0.44-0.39,0.87-0.79,1.29-1.18l0.41-0.4c1.42-1.37,2.78-2.81,4.03-4.28l0.09-0.1
			c0.43-0.51,0.85-1.02,1.27-1.56l0.11-0.14c1.95-2.47,3.69-5.08,5.21-7.82c0.86-1.53,1.65-3.11,2.37-4.71
			c3.43-7.68,5.17-15.86,5.17-24.29C238.178,244.386,237.928,240.326,237.338,236.966z"/>
				<path id="XMLID_1032_" style="fill:#2F697E;" d="M237.338,236.966c-5.03-1.19-10.31-1.85-15.8-1.97c1.12,3.95,1.64,8.7,1.64,12.79
			c0,6.31-1.3,12.43-3.87,18.17c-1.49,3.34-3.39,6.49-5.67,9.38l-0.07,0.1c-0.3,0.37-0.6,0.74-0.93,1.13l-0.07,0.09
			c-0.95,1.1-1.97,2.19-3.05,3.24l-0.3,0.28c-0.32,0.3-0.64,0.6-0.96,0.88l-0.26,0.23c-0.6,0.52-1.23,1.05-1.88,1.56l-0.41,0.32
			c-0.3,0.23-0.61,0.46-0.9,0.67c-0.2,0.15-0.4,0.29-0.6,0.43c-0.3,0.21-0.6,0.41-0.89,0.61c-0.23,0.15-0.45,0.29-0.68,0.44
			l-0.1,0.06c-0.45,0.29-0.9,0.56-1.36,0.84c-0.28,0.16-0.57,0.33-0.86,0.49c-0.27,0.15-0.54,0.29-0.79,0.43
			c-0.31,0.16-0.62,0.32-0.96,0.49l-0.15,0.08c-0.19,0.09-0.39,0.19-0.58,0.28c-0.52,0.25-1.06,0.5-1.59,0.73l-0.63,0.25
			c-0.39,0.16-0.78,0.32-1.19,0.47c-0.23,0.09-0.47,0.18-0.7,0.26c-0.42,0.15-0.85,0.29-1.28,0.43l-0.55,0.18
			c-0.6,0.19-1.2,0.36-1.8,0.52l-0.57,0.14c-0.46,0.11-0.92,0.22-1.4,0.32l-0.61,0.13c-0.55,0.11-1.1,0.21-1.63,0.29l-0.34,0.06
			c-0.65,0.1-1.31,0.18-1.94,0.25l-0.58,0.05c-0.51,0.05-1.02,0.09-1.53,0.12l-0.6,0.03c-0.65,0.03-1.31,0.06-1.96,0.05
			c-0.031,0-0.06-0.002-0.09-0.002v17.76c1.007,1.777,2.118,3.551,3.32,5.255c2.14,3.052,4.708,6.097,7.644,9.057
			c2.931,2.925,5.972,5.5,9.032,7.651c2.983,2.109,6.178,3.975,9.241,5.396c1.453,0.671,2.845,1.252,4.141,1.727
			c1.268,0.461,2.429,0.835,3.436,1.108c1.999,0.561,3.328,0.739,3.384,0.746l2.583,0.339l-0.339-2.583
			c-0.008-0.056-0.186-1.385-0.742-3.366c-0.275-1.019-0.649-2.181-1.114-3.457c-0.47-1.284-1.05-2.675-1.727-4.139
			c-1.422-3.064-3.287-6.259-5.392-9.233c-2.154-3.066-4.729-6.106-7.662-9.044c-2.048-2.032-4.142-3.877-6.249-5.538
			c0.124-0.044,0.25-0.083,0.374-0.128c0.33-0.11,0.65-0.23,0.95-0.35c0.53-0.19,1.05-0.4,1.59-0.63l0.23-0.09
			c0.2-0.08,0.4-0.16,0.6-0.25c0.72-0.3,1.44-0.63,2.14-0.97c0.3-0.14,0.59-0.28,0.88-0.43l0.11-0.05c0.42-0.21,0.84-0.43,1.27-0.66
			c0.36-0.19,0.72-0.38,1.07-0.58c0.39-0.22,0.78-0.44,1.16-0.66c0.61-0.36,1.22-0.74,1.9-1.17c0.31-0.2,0.62-0.39,0.94-0.6
			c0.4-0.27,0.8-0.55,1.2-0.83c0.26-0.19,0.53-0.37,0.8-0.57c0.41-0.3,0.82-0.6,1.2-0.89c0.15-0.12,0.29-0.23,0.43-0.34l0.13-0.11
			c0.87-0.67,1.71-1.37,2.52-2.09l0.33-0.28c0.44-0.39,0.87-0.79,1.29-1.18l0.41-0.4c1.42-1.37,2.78-2.81,4.03-4.28l0.09-0.1
			c0.43-0.51,0.85-1.02,1.27-1.56l0.11-0.14c1.95-2.47,3.69-5.08,5.21-7.82c0.86-1.53,1.65-3.11,2.37-4.71
			c3.43-7.68,5.17-15.86,5.17-24.29C238.178,244.386,237.928,240.326,237.338,236.966z"/>
			</g>
		</g>
	</symbol>
</svg>