<?xml version="1.0" encoding="UTF-8"?>
<svg xmlns="http://www.w3.org/2000/svg" style="display: none;">
    <symbol viewBox="0 0 12 12" enable-background="new 0 0 12 12" id="card" version="1.1" xml:space="preserve" xmlns="http://www.w3.org/2000/svg" xmlns:xlink="http://www.w3.org/1999/xlink" fill="#000000"><g id="SVGRepo_bgCarrier" stroke-width="0"></g><g id="SVGRepo_tracerCarrier" stroke-linecap="round" stroke-linejoin="round"></g><g id="SVGRepo_iconCarrier"><path d="M11,1.5H1c-0.5517578,0-1,0.4482422-1,1v7c0,0.5517578,0.4482422,1,1,1h10c0.5517578,0,1-0.4482422,1-1v-7 C12,1.9482422,11.5517578,1.5,11,1.5z M4,8.5H2v-1h2V8.5z M8,8.5H5v-1h3V8.5z" fill="#1D1D1B"></path></g></symbol>
    <symbol fill="#000000" height="30px" width="30px" version="1.1" id="start" xmlns="http://www.w3.org/2000/svg" xmlns:xlink="http://www.w3.org/1999/xlink" viewBox="0 0 37.979 37.979" xml:space="preserve"><g id="SVGRepo_bgCarrier" stroke-width="0"></g><g id="SVGRepo_tracerCarrier" stroke-linecap="round" stroke-linejoin="round"></g><g id="SVGRepo_iconCarrier"> <g> <path d="M21.553,2.322C15.45,3.435,9.956,6.693,2.608,3.406c0.096,0.333,0.189,0.667,0.283,1h-1.75L1,3.906H0l8.988,31.75h1 l-4.01-14.167h1.75c0.109,0.39,0.221,0.778,0.33,1.168C15.405,25.942,20.9,22.684,27,21.571 C25.186,15.155,23.369,8.738,21.553,2.322z M9.796,5.831c2.07-0.046,4.032-0.473,5.971-0.983c0.521,1.833,1.039,3.667,1.559,5.5 c-1.938,0.51-3.901,0.937-5.973,0.983C10.834,9.497,10.314,7.664,9.796,5.831z M5.766,20.739L1.354,5.156h1.75 c1.472,5.194,2.941,10.389,4.412,15.583H5.766z M7.173,15.991c-0.508-1.792-1.017-3.583-1.522-5.375 c2.046,0.751,3.951,1.005,5.773,0.964c0.507,1.792,1.015,3.583,1.521,5.375C11.125,16.996,9.219,16.742,7.173,15.991z M20.651,22.098c-1.938,0.511-3.9,0.937-5.972,0.982c-0.519-1.834-1.038-3.667-1.558-5.5c2.069-0.046,4.032-0.473,5.973-0.983 C19.613,18.432,20.133,20.264,20.651,22.098z M24.039,14.635c-1.729,0.375-3.414,0.889-5.121,1.337 c-0.508-1.792-1.016-3.583-1.521-5.375c1.706-0.449,3.395-0.962,5.12-1.337C23.023,11.052,23.531,12.843,24.039,14.635z M23.227,5.446c0.096,0.333,0.189,0.667,0.283,1c0.787-0.118,1.584-0.195,2.398-0.213c0.52,1.833,1.037,3.667,1.557,5.5 c-0.813,0.018-1.611,0.095-2.396,0.213c0.591,2.083,1.181,4.167,1.771,6.25c0.785-0.118,1.584-0.195,2.396-0.213 c0.521,1.833,1.039,3.667,1.56,5.5c-2.07,0.045-4.033,0.473-5.974,0.981c-0.121-0.432-0.243-0.86-0.364-1.291 c-2.018,0.529-4.008,1.15-6.068,1.525c0.217,0.766,0.434,1.529,0.649,2.293c6.101-1.113,11.597-4.371,18.94-1.086 c-1.814-6.416-3.633-12.833-5.449-19.25C29.11,5.128,26.094,5.015,23.227,5.446z M34.833,18.322 c-2.046-0.751-3.95-1.005-5.772-0.964c-0.508-1.792-1.016-3.583-1.521-5.375c1.82-0.041,3.727,0.213,5.771,0.964 C33.817,14.739,34.326,16.53,34.833,18.322z"></path> </g> </g></symbol>
    <symbol fill="#000000" height="30px" width="30px" version="1.1" id="jail-visit" xmlns="http://www.w3.org/2000/svg" xmlns:xlink="http://www.w3.org/1999/xlink" viewBox="0 0 392.663 392.663" xml:space="preserve"><g id="SVGRepo_bgCarrier" stroke-width="0"></g><g id="SVGRepo_tracerCarrier" stroke-linecap="round" stroke-linejoin="round"></g><g id="SVGRepo_iconCarrier"> <g> <g> <path d="M381.737,370.812h-10.925V21.85h10.925c6.012,0,10.925-4.848,10.925-10.925S387.814,0,381.737,0H10.925 C4.913,0,0,4.848,0,10.925S4.848,21.85,10.925,21.85h10.925v348.962H10.925C4.913,370.812,0,375.661,0,381.737 c0,6.012,4.848,10.925,10.925,10.925h370.747c6.012,0,10.925-4.848,10.925-10.925 C392.598,375.661,387.749,370.812,381.737,370.812z M261.754,21.85h32.711v51.976h-32.711V21.85z M207.192,21.85h32.711v51.976 h-32.711V21.85z M152.695,21.85h32.711v51.976h-32.711V21.85z M98.198,21.85h32.711c0,0,0,51.976,0,51.976H98.198V21.85z M98.198,95.677h196.267v86.238l-196.267-0.065V95.677z M76.347,370.812H43.636V21.85h32.711V370.812z M130.909,370.812H98.198 c0,0,0-167.047,0-167.047h32.711V370.812z M185.471,370.812H152.76V203.766h32.711V370.812z M239.968,370.812h-32.711V203.766 h32.711V370.812z M294.465,370.812h-32.711V203.766h32.711V370.812z M349.026,370.812h-32.711V21.85h32.711V370.812z"></path> </g> </g> </g></symbol>
    <symbol fill="#000000" height="30px" width="30px" version="1.1" id="jail" xmlns="http://www.w3.org/2000/svg" xmlns:xlink="http://www.w3.org/1999/xlink" viewBox="0 0 512.019 512.019" xml:space="preserve"><g id="SVGRepo_bgCarrier" stroke-width="0"></g><g id="SVGRepo_tracerCarrier" stroke-linecap="round" stroke-linejoin="round"></g><g id="SVGRepo_iconCarrier"> <g> <g> <path d="M503.765,235.17c-8.917-21.461-24.448-38.699-44.075-50.325l-25.003-60.117c-13.568-32.533-51.072-48.021-83.669-34.453 l-11.136,4.629l-45.077-64.469c-2.944-4.203-7.317-7.211-12.309-8.469L197.163,0.631c-9.6-2.389-19.776,2.24-24.256,11.157 l-41.131,82.24l-61.525,61.568c-5.717,5.696-7.723,14.165-5.163,21.824l12.245,36.715c-31.488,3.968-56,30.421-56,62.72v65.152 C8.107,359.756,0,381.538,0,405.346c0,58.795,47.851,106.667,106.667,106.667c58.795,0,106.667-47.872,106.667-106.667 c0-23.808-8.107-45.589-21.333-63.339v-65.152c0-35.008-28.715-63.509-64-63.509h-5.973l-12.288-36.907l54.677-54.677 c1.621-1.621,2.965-3.499,3.989-5.547l35.029-70.037l60.971,15.253l35.904,51.328c-24.661,16.704-35.072,49.045-23.168,77.589 l25.024,60.139c-5.376,21.483-4.48,44.715,4.672,66.667c10.944,26.304,31.488,46.784,57.813,57.621 c13.141,5.397,26.88,8.107,40.661,8.107c13.888,0,27.776-2.752,41.003-8.256c26.304-10.965,46.763-31.488,57.621-57.835 C514.773,290.444,514.709,261.452,503.765,235.17z M154.603,363.468c0.043,0.064,0.128,0.085,0.192,0.149 c9.749,11.243,15.872,25.707,15.872,41.728c0,35.285-28.715,64-64,64c-35.307,0-64-28.715-64-64 c0-15.979,6.08-30.421,15.808-41.664c0.064-0.085,0.171-0.128,0.235-0.213C83.669,334.924,129.643,334.924,154.603,363.468z M464.469,300.535c-6.507,15.808-18.773,28.139-34.56,34.688c-15.808,6.613-33.216,6.613-48.981,0.107 c-15.808-6.507-28.117-18.795-34.709-34.581c-6.144-14.741-6.08-30.4-1.429-44.501c0.043-0.107,0.128-0.192,0.149-0.299 c2.965-8.768,7.531-16.512,13.376-22.997c0.192-0.192,0.32-0.427,0.512-0.64c2.603-2.816,5.547-5.269,8.64-7.552 c0.533-0.384,0.96-0.875,1.493-1.237c3.627-2.539,7.552-4.693,11.733-6.443c4.139-1.728,8.405-2.965,12.715-3.776 c0.768-0.149,1.579-0.107,2.368-0.235c3.691-0.533,7.424-0.917,11.157-0.789c0.192,0,0.363,0.043,0.555,0.064 c8.789,0.384,17.6,2.624,25.963,6.741c0.149,0.085,0.32,0.085,0.469,0.149c13.696,6.869,24.512,18.048,30.464,32.32v0.021 C470.955,267.34,470.997,284.727,464.469,300.535z"></path> </g> </g> </g></symbol>
    <symbol height="30px" width="30px" version="1.1" id="plane" xmlns="http://www.w3.org/2000/svg" xmlns:xlink="http://www.w3.org/1999/xlink" viewBox="0 0 499.81 499.81" xml:space="preserve" fill="#000000"><g id="SVGRepo_bgCarrier" stroke-width="0"></g><g id="SVGRepo_tracerCarrier" stroke-linecap="round" stroke-linejoin="round"></g><g id="SVGRepo_iconCarrier"> <g> <g> <path style="fill:#010002;" d="M34.059,254.835L2.837,349.37h40.432l27.629-54.193H220.61l-40.854,123.684h45.902l63.053-123.684 h169.017c23.24,0,42.082-18.842,42.082-42.082s-18.842-42.082-42.082-42.082H291.97l-27.223-53.405l-23.857-46.796l-15.225-29.864 h-45.902l9.86,29.864l15.452,46.796l17.639,53.405H72.978l-27.223-53.405l-3.008-5.893H0l1.951,5.901L34.059,254.835z"></path> </g> </g> </g></symbol>
    <symbol  id="flag" viewBox="0 0 24 24" version="1.1" xmlns="http://www.w3.org/2000/svg" xmlns:xlink="http://www.w3.org/1999/xlink" fill="currentColor" stroke="#000000"><g id="SVGRepo_bgCarrier" stroke-width="0"></g><g id="SVGRepo_tracerCarrier" stroke-linecap="round" stroke-linejoin="round"></g><g id="SVGRepo_iconCarrier"> <title>flag_3_fill</title> <g id="页面-1" stroke="none" stroke-width="1" fill="none" fill-rule="evenodd"> <g id="Business" transform="translate(-1296.000000, -48.000000)" fill-rule="nonzero"> <g id="flag_3_fill" transform="translate(1296.000000, 48.000000)"> <path d="M24,0 L24,24 L0,24 L0,0 L24,0 Z M12.5934901,23.257841 L12.5819402,23.2595131 L12.5108777,23.2950439 L12.4918791,23.2987469 L12.4918791,23.2987469 L12.4767152,23.2950439 L12.4056548,23.2595131 C12.3958229,23.2563662 12.3870493,23.2590235 12.3821421,23.2649074 L12.3780323,23.275831 L12.360941,23.7031097 L12.3658947,23.7234994 L12.3769048,23.7357139 L12.4804777,23.8096931 L12.4953491,23.8136134 L12.4953491,23.8136134 L12.5071152,23.8096931 L12.6106902,23.7357139 L12.6232938,23.7196733 L12.6232938,23.7196733 L12.6266527,23.7031097 L12.609561,23.275831 C12.6075724,23.2657013 12.6010112,23.2592993 12.5934901,23.257841 L12.5934901,23.257841 Z M12.8583906,23.1452862 L12.8445485,23.1473072 L12.6598443,23.2396597 L12.6498822,23.2499052 L12.6498822,23.2499052 L12.6471943,23.2611114 L12.6650943,23.6906389 L12.6699349,23.7034178 L12.6699349,23.7034178 L12.678386,23.7104931 L12.8793402,23.8032389 C12.8914285,23.8068999 12.9022333,23.8029875 12.9078286,23.7952264 L12.9118235,23.7811639 L12.8776777,23.1665331 C12.8752882,23.1545897 12.8674102,23.1470016 12.8583906,23.1452862 L12.8583906,23.1452862 Z M12.1430473,23.1473072 C12.1332178,23.1423925 12.1221763,23.1452606 12.1156365,23.1525954 L12.1099173,23.1665331 L12.0757714,23.7811639 C12.0751323,23.7926639 12.0828099,23.8018602 12.0926481,23.8045676 L12.108256,23.8032389 L12.3092106,23.7104931 L12.3186497,23.7024347 L12.3186497,23.7024347 L12.3225043,23.6906389 L12.340401,23.2611114 L12.337245,23.2485176 L12.337245,23.2485176 L12.3277531,23.2396597 L12.1430473,23.1473072 Z" id="MingCute" fill-rule="nonzero"> </path> <path d="M6.09641,2.38531 C5.10594,1.95611 4,2.68218 4,3.76165 L4,21 C4,21.5523 4.44771,22 5,22 C5.55229,22 6,21.5523 6,21 L6,16.6566 L19.3389,10.8764 C20.5437,10.3543 20.5437,8.6458 19.3389,8.12372 L6.09641,2.38531 Z" id="路径" fill="currentColor"> </path> </g> </g> </g> </g></symbol>
    <symbol fill="currentColor" viewBox="0 0 256 256" id="bulding" xmlns="http://www.w3.org/2000/svg" stroke="#000000"><g id="SVGRepo_bgCarrier" stroke-width="0"></g><g id="SVGRepo_tracerCarrier" stroke-linecap="round" stroke-linejoin="round"></g><g id="SVGRepo_iconCarrier"> <path d="M224,115.53906V208a16.01833,16.01833,0,0,1-16,16H48a16.01833,16.01833,0,0,1-16-16V115.53857a16.03346,16.03346,0,0,1,5.23633-11.83837l79.99414-72.73438a15.93607,15.93607,0,0,1,21.52637-.001l80.00683,72.73536.001.001A16.03466,16.03466,0,0,1,224,115.53906Z"></path> </g></symbol>
    <symbol version="1.1" id="placeholder-player" xmlns="http://www.w3.org/2000/svg" xmlns:xlink="http://www.w3.org/1999/xlink" 
	 viewBox="0 0 333.549 333.549" xml:space="preserve">
<g id="XMLID_8_">
	<g id="XMLID_66_">
		<path id="XMLID_1095_" style="fill:#000;" d="M249.963,237.405c-18.667-6.681-51.458-11.736-51.458-81.376h-29.23h-5.002
			h-29.23c0,69.64-32.791,74.695-51.458,81.376c0,47.368,68.832,48.824,80.688,53.239v1.537c0,0,0.922-0.188,2.501-0.68
			c1.579,0.492,2.501,0.68,2.501,0.68v-1.537C181.13,286.23,249.963,284.773,249.963,237.405z"/>
		<path id="XMLID_1096_" style="fill:#000;" d="M198.505,156.03h-29.23h-2.167v135.573c1.37,0.414,2.167,0.579,2.167,0.579
			v-1.537c11.856-4.414,80.688-5.871,80.688-53.239C231.296,230.725,198.505,225.669,198.505,156.03z"/>
	</g>
	<g id="XMLID_63_">
		<path id="XMLID_1097_" style="fill:#000;" d="M166.776,178.782c-27.454,0-48.409-23.119-57.799-40.456
			s-15.888-69.445,4.34-96.897c19.808-26.883,53.459-23.838,53.459-23.838s33.649-3.045,53.458,23.838
			c20.226,27.452,13.726,79.56,4.335,96.897C215.177,155.663,194.224,178.782,166.776,178.782z"/>
		<path id="XMLID_1098_" style="fill:#000;" d="M220.234,41.429c-18.683-25.354-49.661-24.088-53.127-23.862v161.206
			c27.285-0.186,48.108-23.181,57.462-40.447C233.96,120.989,240.46,68.882,220.234,41.429z"/>
	</g>
	<g id="XMLID_59_">
		<g id="XMLID_1099_">
			<path id="XMLID_1100_" style="fill:#000;" d="M286.756,292.867v40.681H46.792v-40.681c0-30.431,17.377-56.963,40.605-70.913
				c6.043-3.641,19.69-6.43,26.844-8.196c5.953-1.488,52.866,21.691,52.866,21.691s49.246-23.179,55.199-21.691
				c7.154,1.766,17.802,4.554,23.844,8.196C269.379,235.904,286.756,262.436,286.756,292.867z"/>
		</g>
		<path id="XMLID_1101_" style="fill:#000;" d="M246.151,221.954c-6.043-3.641-16.69-6.429-23.844-8.195
			c-5.678-1.42-51.05,19.746-55.199,21.691v98.099h119.648v-40.681C286.756,262.436,269.379,235.904,246.151,221.954z"/>
	</g>
	<g id="XMLID_54_">
		<g id="XMLID_1102_">
			<path id="XMLID_1103_" style="fill:#000;" d="M122.774,235.314c-4.437,1.603-18.333-21.333-6.833-26.833l50.167,26.505
				C166.107,234.985,133.736,231.354,122.774,235.314z"/>
		</g>
		<g id="XMLID_1104_">
			<path id="XMLID_56_" style="fill:#000;" d="M211.441,235.314c4.437,1.603,18.333-21.333,6.833-26.833l-50.167,26.505
				C168.107,234.985,200.478,231.354,211.441,235.314z"/>
		</g>
	</g>
	<g id="XMLID_46_">
		<g id="XMLID_1105_">
			<path id="XMLID_1108_" style="fill:#000;" d="M246.604,221.624c-2.201-1.327-5.416-2.538-8.954-3.63
				c-3.631-1.308-7.562-2.436-11.147-3.38c-2.841,30.494-28.492,54.367-59.728,54.367c-31.096,0-56.665-23.657-59.697-53.955
				c-7.077,1.69-15.672,3.91-20.133,6.599c-23.228,13.951-40.605,40.482-40.605,70.914v40.681h120.887h119.076h0.906v-40.681
				C287.208,262.107,269.831,235.575,246.604,221.624z"/>
		</g>
		<path id="XMLID_1111_" style="fill:#000;" d="M246.604,221.625c-2.201-1.327-5.416-2.538-8.954-3.63
			c-3.631-1.308-7.562-2.436-11.147-3.38c-2.831,30.385-28.31,54.188-59.395,54.359v64.246h0.12h119.076h0.906v-40.681
			C287.208,262.107,269.831,235.575,246.604,221.625z"/>
	</g>
	<g id="XMLID_37_">
		<g id="XMLID_1112_">
			<path id="XMLID_1113_" style="fill:#000;" d="M191.052,135.913c-13.237,0-19.616-9.66-24.254-16.87
				c-0.231,0.383-0.464,0.772-0.701,1.168c-4.188,6.995-9.399,15.702-23.601,15.702c-15.926,0-27.486-11.392-27.486-27.088v-0.414
				l0.078-0.408c0.424-2.204,2.991-13.202,11.937-13.202h26.208c1.872,0,3.755,0.408,5.446,1.179l0.64,0.292l7.456,6.321
				l7.455-6.321l0.64-0.292c1.691-0.771,3.574-1.179,5.446-1.179h26.209c8.945,0,11.512,10.997,11.936,13.202l0.078,0.408v0.414
				C218.538,124.52,206.978,135.913,191.052,135.913z M172.71,110.16l1.168,1.778c0.439,0.668,0.877,1.349,1.32,2.037
				c5.048,7.851,8.634,12.617,15.854,12.617c10.151,0,17.284-7.103,17.481-17.33c-0.485-2.106-1.558-4.465-2.338-5.141h-25.88
				c-0.188,0-0.375,0.021-0.557,0.063L172.71,110.16z M125.014,109.254c0.194,10.232,7.328,17.338,17.482,17.338
				c7.943,0,10.692-3.946,14.868-10.922c0.733-1.225,1.491-2.491,2.306-3.733l1.168-1.779l-7.048-5.975
				c-0.182-0.042-0.368-0.063-0.557-0.063h-25.88C126.572,104.799,125.485,107.185,125.014,109.254z"/>
		</g>
		<path id="XMLID_1117_" style="fill:#000;" d="M218.46,108.003c-0.424-2.205-2.991-13.202-11.936-13.202h-26.209
			c-1.872,0-3.755,0.408-5.446,1.179l-0.64,0.292l-7.122,6.039v17.211c4.614,7.151,10.995,16.391,23.945,16.391
			c15.926,0,27.486-11.393,27.486-27.088v-0.414L218.46,108.003z M191.052,126.593c-7.221,0-10.807-4.767-15.854-12.618
			c-0.442-0.688-0.881-1.369-1.32-2.037l-1.168-1.778l7.048-5.976c0.182-0.042,0.368-0.063,0.557-0.063h25.88
			c0.781,0.676,1.853,3.036,2.338,5.142C208.336,119.49,201.203,126.593,191.052,126.593z"/>
	</g>
	<g id="XMLID_34_">
		<path id="XMLID_36_" style="fill:#000;" d="M202.113,25.918c0,0-24.427-32.813-39.707-24.598
			c-39.045,20.991-44.219,18.365-52.979,21.408c-21.241,7.378-21.798-2.595-19.122,13.776c8.879,54.319-0.557,79.337,15.961,59.147
			s22.025-15.423,64.073-20.012s15.256-23.363,37.28-8.18s24.919,42.732,28.589,42.732c3.671,0,11.84-52.59,6.283-68.911
			C230.629,6.439,202.113,25.918,202.113,25.918z"/>
		<path id="XMLID_1120_" style="fill:#000;" d="M242.491,41.281c-11.862-34.842-40.378-15.362-40.378-15.362
			s-19.894-26.72-35.005-25.896V75.98c1.057-0.108,2.124-0.219,3.231-0.34c42.047-4.588,15.256-23.363,37.28-8.18
			c22.025,15.184,24.919,42.732,28.589,42.732S248.048,57.603,242.491,41.281z"/>
	</g>
	<g id="XMLID_9_">
		
			<ellipse id="XMLID_33_" transform="matrix(0.3543 0.9351 -0.9351 0.3543 171.4079 -26.089)" style="fill:#000;" cx="104.596" cy="111.077" rx="17.187" ry="10.048"/>
		
			<ellipse id="XMLID_32_" transform="matrix(0.3543 -0.9351 0.9351 0.3543 43.9645 285.8114)" style="fill:#000;" cx="228.947" cy="111.07" rx="17.187" ry="10.048"/>
	</g>
</g>
</symbol>
<symbol id="money" viewBox="0 0 100 100" xmlns="http://www.w3.org/2000/svg"><path fill-rule="evenodd" clip-rule="evenodd" fill="#24AE5F" d="M23.25 79L0 67V32.656L51.75 7 75 19v34.5L23.25 79z"/><path fill-rule="evenodd" clip-rule="evenodd" fill="#1E9450" d="M0 64.554v2.983l23.193 11.932 51.622-25.356V51.13L23.193 76.486 0 64.554zm0-5.22v2.983l23.193 11.932 51.622-25.355V45.91L23.193 71.266 0 59.334zm0-10.441v2.983l23.193 11.932 51.622-25.355V35.47L23.193 60.825 0 48.893zm0 5.22v2.983l23.193 11.932 51.622-25.356v-2.983L23.193 66.046 0 54.113zm0-10.44v2.983l23.193 11.932 51.622-25.356V30.25L23.193 55.605 0 43.673zm23.251 1.462L0 33.084v3.013l23.251 12.05L75.003 22.54v-3.013L23.251 45.135zM0 38.453v2.983l23.251 11.932 51.752-25.356v-2.983L23.251 50.385 0 38.453z"/><path fill-rule="evenodd" clip-rule="evenodd" fill="#24AE5F" d="M48.133 91.884L24.998 79.951V50.647l51.495-25.355L100 37.299v29L48.133 91.884z"/><path fill-rule="evenodd" clip-rule="evenodd" fill="#1E9450" d="M25 77.085v2.983L48.25 92 100 66.644v-2.983L48.25 89.017 25 77.085zm0-5.22v2.983L48.25 86.78 100 61.424v-2.983L48.25 83.796 25 71.865zm0-10.441v2.983l23.25 11.932L100 50.983V48L48.25 73.356 25 61.424zm0 5.22v2.983L48.25 81.56 100 56.204v-2.983L48.25 78.576 25 66.644zm0-10.44v2.983l23.25 11.932L100 45.763V42.78L48.25 68.136 25 56.204zm23.25 6.367L25 50.64v2.983l23.25 11.932L100 40.199v-2.983L48.25 62.571z"/><path opacity=".1" d="M23.193 45.165L0 33.25v34.344L23.25 79.5l-.057-34.335zm25 17.435L25 50.685v29.292l23.25 11.906-.057-29.283z"/><path fill-rule="evenodd" clip-rule="evenodd" fill="#1E9450" d="M59.996 50.609l-11.363 5.459-9.702-5.22 13.138-6.436s-.912-2.62-.354-3.019c-.01.047-19.386 9.692-19.386 9.692l16.583 8.291 17.048-8.523s-1.669.055-3.148-.006c-1.502-.06-2.816-.238-2.816-.238zm13.446-3.496L93.5 37.5l-16.299-8.849-17.032 8.515c2.582-.133 4.697.978 4.697.978l12.126-5.94 10.448 5.221-13.99 6.72-.008 2.968z"/><path fill="#1E9450" d="M64.235 46.958a5.58 5.58 0 0 0 1.99-.302l-3.529-1.87-.3.078-.384.123c-.523.157-1.059.302-1.61.433-.551.131-1.111.213-1.68.246s-1.137-.001-1.702-.101a5.753 5.753 0 0 1-1.693-.597c-.574-.304-.973-.63-1.196-.977-.223-.348-.306-.694-.25-1.04.056-.346.236-.686.538-1.019a5.136 5.136 0 0 1 1.151-.924l-1.3-.689.981-.52 1.3.689a11.139 11.139 0 0 1 1.734-.57 9.4 9.4 0 0 1 1.831-.255 8.713 8.713 0 0 1 1.887.137 7.553 7.553 0 0 1 1.886.612l-2.361 1.251a3.822 3.822 0 0 0-1.564-.389c-.581-.026-1.06.061-1.437.261l2.989 1.584.509-.162.559-.171c1.045-.315 1.956-.502 2.731-.562.775-.058 1.449-.048 2.02.031.571.08 1.056.205 1.455.374.399.171.74.331 1.021.48.248.131.499.329.754.594.255.265.405.576.449.934.045.358-.059.753-.309 1.184-.251.431-.764.882-1.538 1.353l1.435.761-.981.52-1.435-.761c-1.332.61-2.69.918-4.075.924-1.385.007-2.797-.313-4.237-.959l2.344-1.242a4.315 4.315 0 0 0 2.017.541zm3.45-1.229c.143-.153.233-.311.27-.474a.693.693 0 0 0-.074-.489c-.086-.163-.264-.316-.535-.459a2.616 2.616 0 0 0-1.395-.308c-.491.028-1.154.167-1.988.418l3.242 1.718a2.6 2.6 0 0 0 .48-.406zM57.08 42.391a.76.76 0 0 0-.22.394.545.545 0 0 0 .098.413c.091.137.255.268.492.393.372.197.775.288 1.21.272.435-.016.981-.133 1.637-.349l-2.753-1.458a1.841 1.841 0 0 0-.464.335z"/><path fill-rule="evenodd" clip-rule="evenodd" fill="#1E9450" d="M34.583 32.609L23.22 38.068l-9.702-5.22 13.138-6.436s-.913-2.62-.354-3.019c-.01.047-19.386 9.692-19.386 9.692l16.583 8.291 17.048-8.523s-1.669.055-3.148-.006c-1.502-.06-2.816-.238-2.816-.238zm13.446-3.496L68.087 19.5l-16.299-8.849-17.032 8.515c2.582-.133 4.697.978 4.697.978l12.126-5.94 10.448 5.221-13.989 6.72-.009 2.968z"/><path fill="#1E9450" d="M38.822 28.958a5.558 5.558 0 0 0 1.99-.302l-3.53-1.87-.3.078-.384.123a28.85 28.85 0 0 1-1.61.433c-.551.131-1.111.213-1.68.246s-1.136-.001-1.702-.101a5.753 5.753 0 0 1-1.693-.597c-.574-.304-.973-.63-1.196-.977-.223-.348-.306-.694-.25-1.04.057-.346.236-.685.538-1.018a5.136 5.136 0 0 1 1.151-.924l-1.3-.689.981-.52 1.3.689a11.139 11.139 0 0 1 1.734-.57 9.4 9.4 0 0 1 1.831-.255 8.713 8.713 0 0 1 1.887.137 7.553 7.553 0 0 1 1.886.612l-2.361 1.251a3.822 3.822 0 0 0-1.564-.389c-.581-.026-1.06.061-1.437.261l2.989 1.584.509-.163.559-.171c1.045-.315 1.956-.502 2.731-.562.775-.059 1.449-.048 2.02.031.571.08 1.056.205 1.455.375.399.171.74.331 1.021.48.248.131.499.329.754.594.255.265.405.576.449.934.045.358-.059.753-.309 1.184-.251.431-.764.882-1.538 1.353l1.435.761-.981.52-1.435-.761c-1.332.61-2.69.918-4.075.924-1.385.007-2.797-.313-4.237-.959l2.344-1.242c.63.345 1.303.525 2.018.54zm3.45-1.229c.143-.153.233-.311.269-.474a.693.693 0 0 0-.074-.489c-.086-.163-.264-.316-.535-.46a2.616 2.616 0 0 0-1.395-.308l-1.988.419 3.242 1.718c.178-.117.338-.252.481-.406zm-10.605-3.338a.76.76 0 0 0-.22.394.545.545 0 0 0 .098.413c.092.137.255.268.492.393.372.197.775.288 1.211.272.435-.016.981-.133 1.637-.349l-2.753-1.458a1.83 1.83 0 0 0-.465.335z"/></symbol>
<symbol version="1.1" id="bank" xmlns="http://www.w3.org/2000/svg" xmlns:xlink="http://www.w3.org/1999/xlink" 
	 viewBox="0 0 512 512" xml:space="preserve">
<circle style="fill:#88C5CC;" cx="256" cy="256" r="256"/>
<rect x="124" y="200" style="fill:#406A80;" width="264" height="232"/>
<rect x="108" y="216" style="fill:#E6E6E6;" width="64" height="200"/>
<g>
	<rect x="116" y="216" style="fill:#CCCCCC;" width="8" height="200"/>
	<rect x="136" y="216" style="fill:#CCCCCC;" width="8" height="200"/>
	<rect x="156" y="216" style="fill:#CCCCCC;" width="8" height="200"/>
</g>
<g>
	<rect x="340" y="216" style="fill:#E6E6E6;" width="64" height="200"/>
	<path style="fill:#E6E6E6;" d="M40,512v-32c0-4.4,3.6-8,8-8h416c4.4,0,8,3.6,8,8v32H40z"/>
	<path style="fill:#E6E6E6;" d="M64,472v-32c0-4.4,3.6-8,8-8h368c4.4,0,8,3.6,8,8v32H64z"/>
</g>
<path style="fill:#F5F5F5;" d="M433.656,170.344l-176-120C256.096,48.784,254.048,48,252,48s-4.096,0.784-5.656,2.344l-176,120
	c-1.548,1.544-2.328,3.628-2.344,5.656c-0.016,2.068,0.764,4.08,2.344,5.656C71.908,183.22,73.952,184,76,184h176h176
	c2.048,0,4.092-0.78,5.656-2.344c1.58-1.58,2.36-3.588,2.344-5.656C435.984,173.972,435.204,171.888,433.656,170.344z"/>
<g>
	<polygon style="fill:#CCCCCC;" points="102.184,168 252,65.852 401.816,168 	"/>
	<path style="fill:#CCCCCC;" d="M452,192c0,4.4-3.6,8-8,8H60c-4.4,0-8-3.6-8-8l0,0c0-4.4,3.6-8,8-8h384C448.4,184,452,187.6,452,192
		L452,192z"/>
</g>
<rect x="224" y="216" style="fill:#E6E6E6;" width="64" height="200"/>
<g>
	<rect x="232" y="216" style="fill:#CCCCCC;" width="8" height="200"/>
	<rect x="252" y="216" style="fill:#CCCCCC;" width="8" height="200"/>
	<rect x="272" y="216" style="fill:#CCCCCC;" width="8" height="200"/>
	<rect x="348" y="216" style="fill:#CCCCCC;" width="8" height="200"/>
	<rect x="368" y="216" style="fill:#CCCCCC;" width="8" height="200"/>
	<rect x="388" y="216" style="fill:#CCCCCC;" width="8" height="200"/>
</g>
<g>
	<path style="fill:#F5F5F5;" d="M180,424c0,4.4-3.6,8-8,8h-64c-4.4,0-8-3.6-8-8l0,0c0-4.4,3.6-8,8-8h64C176.4,416,180,419.6,180,424
		L180,424z"/>
	<path style="fill:#F5F5F5;" d="M180,208c0,4.4-3.6,8-8,8h-64c-4.4,0-8-3.6-8-8l0,0c0-4.4,3.6-8,8-8h64C176.4,200,180,203.6,180,208
		L180,208z"/>
	<path style="fill:#F5F5F5;" d="M296,424c0,4.4-3.6,8-8,8h-64c-4.4,0-8-3.6-8-8l0,0c0-4.4,3.6-8,8-8h64C292.4,416,296,419.6,296,424
		L296,424z"/>
	<path style="fill:#F5F5F5;" d="M296,208c0,4.4-3.6,8-8,8h-64c-4.4,0-8-3.6-8-8l0,0c0-4.4,3.6-8,8-8h64C292.4,200,296,203.6,296,208
		L296,208z"/>
	<path style="fill:#F5F5F5;" d="M412,424c0,4.4-3.6,8-8,8h-64c-4.4,0-8-3.6-8-8l0,0c0-4.4,3.6-8,8-8h64C408.4,416,412,419.6,412,424
		L412,424z"/>
	<path style="fill:#F5F5F5;" d="M412,208c0,4.4-3.6,8-8,8h-64c-4.4,0-8-3.6-8-8l0,0c0-4.4,3.6-8,8-8h64C408.4,200,412,203.6,412,208
		L412,208z"/>
</g>
<rect x="64" y="468" style="fill:#CCCCCC;" width="384" height="4"/>
<g>
	<path style="fill:#2179A6;" d="M252,140c-6.616,0-12-5.384-12-12c0-2.208,1.792-4,4-4s4,1.792,4,4c0,2.204,1.796,4,4,4s4-1.796,4-4
		s-1.796-4-4-4c-6.616,0-12-5.384-12-12s5.384-12,12-12s12,5.384,12,12c0,2.208-1.792,4-4,4s-4-1.792-4-4c0-2.204-1.796-4-4-4
		s-4,1.796-4,4s1.796,4,4,4c6.616,0,12,5.384,12,12S258.616,140,252,140z"/>
	<path style="fill:#2179A6;" d="M252,108c-2.208,0-4-1.792-4-4v-8c0-2.208,1.792-4,4-4s4,1.792,4,4v8
		C256,106.208,254.208,108,252,108z"/>
	<path style="fill:#2179A6;" d="M252,148c-2.208,0-4-1.792-4-4v-8c0-2.208,1.792-4,4-4s4,1.792,4,4v8
		C256,146.208,254.208,148,252,148z"/>
</g>
</symbol>
</svg>